<?xml version="1.0" encoding="utf-8"?>
<!-- Generator: Adobe Illustrator 18.0.0, SVG Export Plug-In . SVG Version: 6.00 Build 0)  -->
<!DOCTYPE svg PUBLIC "-//W3C//DTD SVG 1.1//EN" "http://www.w3.org/Graphics/SVG/1.1/DTD/svg11.dtd">
<svg version="1.1" id="Layer_1" xmlns="http://www.w3.org/2000/svg" xmlns:xlink="http://www.w3.org/1999/xlink" x="0px" y="0px"
	 width="28px" height="28px" viewBox="0 0 28 28" enable-background="new 0 0 28 28" xml:space="preserve">
<polygon fill="#0189CC" points="14,5 9,5 9,0 5,0 5,5 0,5 0,9 5,9 5,14 9,14 9,9 14,9 "/>
<g>
	<rect x="14" y="5" fill="#0189CC" width="14" height="4"/>
</g>
<g>
	<rect x="14" y="19" fill="#FFFFFF" width="14" height="4"/>
</g>
<polygon fill="#FFFFFF" points="14,19 9,19 9,14 5,14 5,19 0,19 0,23 5,23 5,28 9,28 9,23 14,23 "/>
</svg>
