<?xml version="1.0" encoding="utf-8"?>
<!-- Generator: Adobe Illustrator 18.1.0, SVG Export Plug-In . SVG Version: 6.00 Build 0)  -->
<!DOCTYPE svg PUBLIC "-//W3C//DTD SVG 1.1//EN" "http://www.w3.org/Graphics/SVG/1.1/DTD/svg11.dtd">
<svg version="1.1" id="Layer_1" xmlns="http://www.w3.org/2000/svg" xmlns:xlink="http://www.w3.org/1999/xlink" x="0px" y="0px"
	 viewBox="0 0 12 15" enable-background="new 0 0 12 15" xml:space="preserve">
<g>
	<path fill-rule="evenodd" clip-rule="evenodd" fill="#4C4C4C" d="M1,0C0.4,0,0,0.4,0,1l0,13c0,0.6,0.4,1,1,1h10c0.6,0,1-0.4,1-1
		V2.9c0-0.3-0.1-0.5-0.3-0.7L9.8,0.3C9.6,0.1,9.4,0,9.1,0H1z M1.3,13.8h9.5V4H9C8.4,4,8,3.6,8,3V1.2H1.3V13.8z M8.7,5
		C8.9,5,9,5.1,9,5.2v0.5C9,5.9,8.9,6,8.7,6L3.2,6C3.1,6,3,5.9,3,5.8V5.3C3,5.1,3.1,5,3.2,5L8.7,5z M8.7,7C8.9,7,9,7.1,9,7.3v0.5
		C9,7.9,8.9,8,8.7,8L3.2,8C3.1,8,3,7.9,3,7.8V7.3C3,7.1,3.1,7,3.2,7L8.7,7z M5.3,9c0.1,0,0.2,0.1,0.2,0.2v0.5c0,0.1-0.1,0.2-0.2,0.2
		l-2.1,0C3.1,10,3,9.9,3,9.8V9.3C3,9.1,3.1,9,3.2,9L5.3,9z M9,3V1.2L10.7,3H9z"/>
</g>
</svg>
