<?xml version="1.0" encoding="utf-8"?>
<!-- Generator: Adobe Illustrator 18.1.0, SVG Export Plug-In . SVG Version: 6.00 Build 0)  -->
<!DOCTYPE svg PUBLIC "-//W3C//DTD SVG 1.1//EN" "http://www.w3.org/Graphics/SVG/1.1/DTD/svg11.dtd">
<svg version="1.1" id="Layer_1" xmlns="http://www.w3.org/2000/svg" xmlns:xlink="http://www.w3.org/1999/xlink" x="0px" y="0px"
	 viewBox="0 0 12 15" enable-background="new 0 0 12 15" xml:space="preserve">
<g id="file-pdf">
	<g>
		<polygon fill="#F91D0A" points="8,0 0,0 0,15 12,15 12,4 8,4 		"/>
	</g>
	<path fill="#FFFFFD" d="M15.7,10.3C15.7,10.3,15.7,10.3,15.7,10.3c0-0.3-0.1-0.6-0.3-0.7C14.9,9.1,13.7,9,12.7,9l-0.2,0
		c-0.9,0-2,0.1-3.2,0.2C8.8,8.9,8.2,8.5,7.8,8.1C6.6,7,5.6,5.4,5,3.7C5,3.6,5,3.4,5.1,3.3c0.2-0.8,0.6-3.3,0.6-3.4l0-0.2
		c0.1-0.2,0-0.9-0.1-1.4C5.5-2.1,5.2-3,4.4-3L4.1-3C3.6-3,3.1-2.7,3-2.3C2.6-0.8,3,1.4,3.7,4.3L3.5,4.8C3,6.1,2.3,7.4,1.7,8.6
		L1.6,8.7C1,10,0.4,11-0.1,11.9l-0.6,0.3c0,0-0.9,0.5-1.2,0.6c-1.8,1.1-3,2.3-3.2,3.2c-0.1,0.3,0,0.6,0.3,0.8l0.5,0.3
		c0.2,0.1,0.4,0.2,0.6,0.2c1.3,0,3-1.4,5.1-5c2.4-0.8,4.9-1.6,7.3-2c2.1,1.2,4.3,1.7,5.4,1.7c0.2,0,0.4,0,0.6-0.1
		c0.2-0.1,0.4-0.2,0.6-0.4c0.1-0.1,0.2-0.6,0.2-0.7L15.7,10.3L15.7,10.3z M5.1-0.4v0.2C5,0.1,4.3,3.2,4.3,3.3C3.9,2,3.5,0,3.5-0.9
		c0-0.3,0.5-0.8,0.6-1.3c0-0.2,0.1-0.3,0.2-0.4c0.1,0.1,0.3,0.3,0.6,0.9C5.1-1.3,5.1-0.7,5.1-0.4z M7.1,8.9c0.2,0.2,0.3,0.3,0.5,0.4
		c-2.3,0.4-4.1,0.8-5.8,1.5c0.3-0.6,0.5-0.9,0.9-1.6C3.5,7.7,4,6.6,4.3,5.6C5.1,7,6,8,7.1,8.9z M15.4,10.7c-0.1,0.1-0.2,0.3-0.3,0.3
		c-0.1,0.1-0.3,0.1-0.5,0.1c-0.9,0-3.6-0.7-5.1-1.4c1.7-0.2,4.2,0.1,4.9,0.3C15.4,10.4,15.4,10.7,15.4,10.7L15.4,10.7L15.4,10.7z
		 M-0.2,12.2c-1.9,3.2-3.1,4.2-3.8,4.4c0.1-0.6,1.2-2.1,2.6-3.3c0.2-0.1,0.8-0.8,0.9-0.8L-0.2,12.2z"/>
</g>
<g id="note" display="none">
	<polygon display="inline" fill="#888A8C" points="9,3 9,0 0,0 0,15 12,15 12,3 	"/>
	<rect x="2" y="5" display="inline" fill="#FFFFFF" width="8" height="1"/>
	<rect x="2" y="7" display="inline" fill="#FFFFFF" width="8" height="1"/>
	<rect x="2" y="9" display="inline" fill="#FFFFFF" width="8" height="1"/>
	<rect x="2" y="11" display="inline" fill="#FFFFFF" width="5" height="1"/>
</g>
<polyline fill="#FDA7A0" points="8,0 8,4 12,4 "/>
<polyline display="none" opacity="0.68" fill="#FFFFFF" points="8,0 8,4 12,4 "/>
<rect x="7" fill="#F91D0A" width="1" height="5"/>
</svg>
