<?xml version="1.0" encoding="utf-8"?>
<!-- Generator: Adobe Illustrator 18.0.0, SVG Export Plug-In . SVG Version: 6.00 Build 0)  -->
<!DOCTYPE svg PUBLIC "-//W3C//DTD SVG 1.1//EN" "http://www.w3.org/Graphics/SVG/1.1/DTD/svg11.dtd">
<svg version="1.1" xmlns="http://www.w3.org/2000/svg" xmlns:xlink="http://www.w3.org/1999/xlink" x="0px" y="0px" width="141px"
	 height="35px" viewBox="0 0 141 35" enable-background="new 0 0 141 35" xml:space="preserve">
<g id="Layer_1">
</g>
<g id="Layer_3">
	<g>
		<path fill-rule="evenodd" clip-rule="evenodd" d="M41.5,8.3h-7.6c-2.6,0-5.2,1.2-6.3,2.9c-1.3,1.9-2.3,3.8-2.7,5.4
			c-0.4,1.4,0.1,2.6,1.1,3.5c1.4,1.2,5.4,1.2,5.9,3.1c0.5,1.9-1.4,4.4-3.4,4.4h-5.3c-1.3,0-2-0.2-1.8-1.5h-0.4l-1.7,4.2
			c-0.2,0.6-0.1,1.1,1,1.1h9c2.1,0,4-0.8,5.3-2.2c1.8-2,2.8-4.4,3.4-6.9c0.5-2.3-0.6-3.4-2.2-4.1c-1.3-0.6-4.5-1.3-4.8-2.4
			c-0.4-1.4,0.8-3.8,2.5-3.8c1.3,0,2.8,0,4.3,0c1,0,2.3,0.1,2.9-1.4L41.5,8.3L41.5,8.3z"/>
		<path fill-rule="evenodd" clip-rule="evenodd" d="M124.4,8.3h-7.6c-2.6,0-5.2,1.2-6.3,2.9c-1.3,1.9-2.3,3.8-2.7,5.4
			c-0.4,1.4,0.1,2.6,1.1,3.5c1.4,1.2,5.4,1.2,5.9,3.1c0.5,1.9-1.4,4.4-3.4,4.4h-5.3c-1.3,0-2-0.2-1.8-1.5h-0.4l-1.7,4.2
			c-0.2,0.6-0.1,1.1,1,1.1h9c2.1,0,4-0.8,5.3-2.2c1.8-2,2.8-4.4,3.4-6.9c0.5-2.3-0.6-3.4-2.2-4.1c-1.3-0.6-4.5-1.3-4.8-2.4
			c-0.4-1.4,0.8-3.8,2.5-3.8c1.3,0,2.8,0,4.3,0c1,0,2.3,0.1,2.9-1.4L124.4,8.3L124.4,8.3z"/>
		<path fill-rule="evenodd" clip-rule="evenodd" d="M56.9,9.3c0.1-0.5-0.1-1-0.8-1h-6.6l-0.2,0.4c1.1,0.2,0.2,1.5-0.2,2.1L34.8,29.9
			c-0.7,1-0.5,1.6,0.2,1.6h5.1l0.1-0.4c-0.8,0-0.9-0.8-0.6-1.2l3-4.2h7.4l-0.4,4.2c-0.1,0.6-0.3,1.5,1.1,1.5h4.4l0.1-0.4
			c-0.6,0-0.6-0.7-0.6-1.2L56.9,9.3z M50.5,22.2h-5.4l6.4-9.2L50.5,22.2z"/>
		<path fill-rule="evenodd" clip-rule="evenodd" d="M140,9.3c0-0.5-0.1-1-0.8-1h-6.6l-0.2,0.4c1.1,0.2,0.2,1.5-0.2,2.1l-14.3,19.1
			c-0.7,1-0.5,1.6,0.2,1.6h5.1l0.1-0.4c-0.8,0-0.9-0.8-0.6-1.2l3-4.2h7.4l-0.4,4.2c-0.1,0.6-0.3,1.5,1.1,1.5h4.4l0.1-0.4
			c-0.6,0-0.6-0.7-0.6-1.2L140,9.3z M133.6,22.2h-5.4l6.4-9.2L133.6,22.2z"/>
		<path fill-rule="evenodd" clip-rule="evenodd" d="M67.7,15.2l-7.1,14.7c-0.2,0.4,0,1.2,0.6,1.2L61,31.4h-4.4c-1.4,0-1-0.9-0.7-1.5
			l9.8-19.1c0.4-0.7,1-2,0-2.2l0.2-0.4h5.5c0.7,0,0.8,0.5,0.8,1l-0.7,13l6.4-11.4c0.4-0.7,1.2-2,0.1-2.2l0.2-0.4h5.7
			c0.7,0,0.9,0.5,0.8,1l-2.7,20.6c-0.1,0.5,0,1.2,0.6,1.2l-0.1,0.4H78c-1.4,0-1.1-1-1-1.5l2.3-14.7l-9.2,16.2h-3.6L67.7,15.2
			L67.7,15.2z"/>
		<path fill-rule="evenodd" clip-rule="evenodd" d="M96.7,9.3l-2.9,7.6h7.1l2.3-6c0.3-0.7,0.8-2,0-2.2l0.2-0.4h5
			c0.7,0,0.8,0.6,0.6,1l-7.9,20.6c-0.2,0.4,0,1.2,0.6,1.2l-0.1,0.4h-5.1c-1.4,0-0.9-0.9-0.7-1.5l3.7-9.4h-7.1l-3.6,9.4
			c-0.2,0.4,0,1.2,0.6,1.2l-0.1,0.4h-5.1c-1.4,0-0.9-0.9-0.7-1.5l7.4-19.1c0.3-0.7,0.8-2,0-2.2l0.2-0.4h5
			C96.8,8.3,96.9,8.8,96.7,9.3L96.7,9.3z"/>
		<g>
			<path fill-rule="evenodd" clip-rule="evenodd" d="M27.9,4.6c0,0.6,0.5,1,1.2,1c0.7,0,1.2-0.4,1.2-0.9c0-0.3-0.1-0.5-0.4-0.6
				c-0.2-0.1-0.4-0.2-0.7-0.2c-0.5-0.1-0.7-0.1-0.7-0.4C28.5,3.2,28.7,3,29,3c0.4,0,0.6,0.1,0.6,0.4h0.6c0-0.6-0.4-0.9-1.1-0.9
				c-0.7,0-1.1,0.3-1.1,0.9c0,0.3,0.1,0.5,0.3,0.7c0.2,0.1,0.4,0.2,0.6,0.2c0.5,0.1,0.8,0.2,0.8,0.4c0,0.2-0.2,0.4-0.5,0.4
				c-0.4,0-0.6-0.1-0.7-0.5H27.9L27.9,4.6z"/>
			<path fill-rule="evenodd" clip-rule="evenodd" d="M32.5,3.4h-0.6v1.3c0,0.3-0.2,0.5-0.4,0.5c-0.2,0-0.3-0.1-0.3-0.4V3.4h-0.6v1.5
				c0,0.5,0.2,0.7,0.7,0.7c0.3,0,0.5-0.1,0.6-0.3v0.3h0.6V3.4L32.5,3.4z"/>
			<path fill-rule="evenodd" clip-rule="evenodd" d="M34.4,4.4c0,0.4-0.2,0.7-0.5,0.7c-0.3,0-0.5-0.2-0.5-0.7c0-0.4,0.2-0.6,0.5-0.6
				C34.3,3.8,34.4,4,34.4,4.4L34.4,4.4z M32.9,2.6v2.9h0.5V5.2c0.2,0.2,0.4,0.4,0.6,0.4c0.5,0,0.9-0.4,0.9-1.1
				c0-0.7-0.4-1.1-0.9-1.1c-0.3,0-0.5,0.1-0.6,0.3v-1H32.9L32.9,2.6z"/>
			<path fill-rule="evenodd" clip-rule="evenodd" d="M35.2,4.8L35.2,4.8c0,0.5,0.3,0.8,0.9,0.8c0.7,0,1-0.3,1-0.7
				c0-0.4-0.2-0.5-0.7-0.6C36,4.1,35.8,4.1,35.8,4c0-0.1,0.1-0.2,0.3-0.2c0.2,0,0.4,0.1,0.4,0.3h0.6c0-0.5-0.4-0.7-0.9-0.7
				c-0.5,0-0.9,0.3-0.9,0.7c0,0.4,0.2,0.5,0.7,0.6c0.4,0.1,0.6,0.1,0.6,0.3c0,0.1-0.1,0.2-0.3,0.2c-0.3,0-0.4-0.1-0.4-0.3H35.2
				L35.2,4.8z"/>
			<path fill-rule="evenodd" clip-rule="evenodd" d="M38.4,5.5V5.1h-0.1c-0.2,0-0.2,0-0.2-0.1V3.8h0.3V3.4h-0.3V2.8h-0.6v0.6h-0.3
				v0.4h0.3v1.2c0,0.4,0.1,0.6,0.6,0.6C38.1,5.6,38.2,5.5,38.4,5.5L38.4,5.5z"/>
			<path fill-rule="evenodd" clip-rule="evenodd" d="M39.9,4.5v0.2c0,0.3-0.2,0.5-0.5,0.5c-0.2,0-0.3-0.1-0.3-0.3
				c0-0.2,0.1-0.2,0.3-0.3C39.5,4.6,39.7,4.6,39.9,4.5L39.9,4.5z M39.9,5.3c0,0.1,0,0.2,0.1,0.3h0.6V5.4c-0.1,0-0.1-0.1-0.1-0.3V3.9
				c0-0.4-0.3-0.6-0.9-0.6c-0.6,0-0.9,0.3-0.9,0.7v0h0.5v0c0-0.2,0.1-0.3,0.4-0.3c0.2,0,0.3,0.1,0.3,0.2c0,0.2-0.2,0.2-0.6,0.2
				c-0.5,0.1-0.7,0.3-0.7,0.7c0,0.4,0.2,0.7,0.6,0.7C39.5,5.6,39.8,5.5,39.9,5.3L39.9,5.3z"/>
			<path fill-rule="evenodd" clip-rule="evenodd" d="M40.9,5.5h0.6V4.3c0-0.3,0.2-0.5,0.4-0.5c0.2,0,0.3,0.1,0.3,0.4v1.3h0.6V4.1
				c0-0.5-0.2-0.7-0.7-0.7c-0.3,0-0.5,0.1-0.6,0.3V3.4h-0.6V5.5L40.9,5.5z"/>
			<path fill-rule="evenodd" clip-rule="evenodd" d="M44.5,4.7c0,0.3-0.2,0.4-0.4,0.4c-0.3,0-0.4-0.2-0.4-0.6c0-0.4,0.1-0.7,0.4-0.7
				c0.2,0,0.3,0.1,0.4,0.4H45c0-0.5-0.4-0.8-0.9-0.8c-0.6,0-1,0.4-1,1.1c0,0.7,0.4,1.1,1,1.1c0.5,0,0.9-0.3,1-0.9H44.5L44.5,4.7z"/>
			<path fill-rule="evenodd" clip-rule="evenodd" d="M45.8,4.2c0-0.3,0.2-0.4,0.4-0.4c0.3,0,0.4,0.2,0.4,0.4H45.8L45.8,4.2z
				 M46.7,4.9c-0.1,0.2-0.2,0.2-0.4,0.2c-0.3,0-0.4-0.2-0.4-0.5h1.4c0-0.1,0-0.1,0-0.1c0-0.7-0.4-1.1-1-1.1c-0.6,0-1,0.4-1,1.1
				c0,0.7,0.4,1.2,1,1.2c0.5,0,0.9-0.3,1-0.7H46.7L46.7,4.9z"/>
			<path fill-rule="evenodd" clip-rule="evenodd" d="M49.4,2.6l-1,2.9H49l0.2-0.6h1.1l0.2,0.6h0.6l-1-2.9H49.4L49.4,2.6z M49.8,3.2
				l0.4,1.2h-0.8L49.8,3.2L49.8,3.2z"/>
			<path fill-rule="evenodd" clip-rule="evenodd" d="M52.8,4.4c0,0.4-0.2,0.7-0.5,0.7c-0.3,0-0.5-0.2-0.5-0.7c0-0.4,0.2-0.6,0.5-0.6
				C52.7,3.8,52.8,4,52.8,4.4L52.8,4.4z M51.4,2.6v2.9h0.5V5.2c0.2,0.2,0.4,0.4,0.6,0.4c0.5,0,0.9-0.4,0.9-1.1
				c0-0.7-0.4-1.1-0.9-1.1c-0.3,0-0.5,0.1-0.6,0.3v-1H51.4L51.4,2.6z"/>
			<path fill-rule="evenodd" clip-rule="evenodd" d="M55.6,3.4h-0.6v1.3c0,0.3-0.2,0.5-0.4,0.5c-0.2,0-0.3-0.1-0.3-0.4V3.4h-0.6v1.5
				c0,0.5,0.2,0.7,0.7,0.7c0.3,0,0.5-0.1,0.6-0.3v0.3h0.6V3.4L55.6,3.4z"/>
			<path fill-rule="evenodd" clip-rule="evenodd" d="M55.9,4.8L55.9,4.8c0,0.5,0.3,0.8,0.9,0.8c0.7,0,1-0.3,1-0.7
				c0-0.4-0.2-0.5-0.7-0.6c-0.4-0.1-0.6-0.1-0.6-0.3c0-0.1,0.1-0.2,0.3-0.2c0.2,0,0.4,0.1,0.4,0.3h0.6c0-0.5-0.4-0.7-0.9-0.7
				C56.3,3.3,56,3.6,56,4c0,0.4,0.2,0.5,0.7,0.6c0.4,0.1,0.6,0.1,0.6,0.3c0,0.1-0.1,0.2-0.3,0.2c-0.3,0-0.4-0.1-0.4-0.3H55.9
				L55.9,4.8z"/>
			<path fill-rule="evenodd" clip-rule="evenodd" d="M58.7,4.2c0-0.3,0.2-0.4,0.4-0.4c0.3,0,0.4,0.2,0.4,0.4H58.7L58.7,4.2z
				 M59.5,4.9c-0.1,0.2-0.2,0.2-0.4,0.2c-0.3,0-0.4-0.2-0.4-0.5h1.4c0-0.1,0-0.1,0-0.1c0-0.7-0.4-1.1-1-1.1c-0.6,0-1,0.4-1,1.1
				c0,0.7,0.4,1.2,1,1.2c0.5,0,0.9-0.3,1-0.7H59.5L59.5,4.9z"/>
			<path fill-rule="evenodd" clip-rule="evenodd" d="M62.7,4.5v0.2c0,0.3-0.2,0.5-0.5,0.5c-0.2,0-0.3-0.1-0.3-0.3
				c0-0.2,0.1-0.2,0.3-0.3C62.3,4.6,62.5,4.6,62.7,4.5L62.7,4.5z M62.7,5.3c0,0.1,0,0.2,0.1,0.3h0.6V5.4c-0.1,0-0.1-0.1-0.1-0.3V3.9
				c0-0.4-0.3-0.6-0.9-0.6c-0.6,0-0.9,0.3-0.9,0.7v0H62v0c0-0.2,0.1-0.3,0.4-0.3c0.2,0,0.3,0.1,0.3,0.2c0,0.2-0.2,0.2-0.6,0.2
				c-0.5,0.1-0.7,0.3-0.7,0.7c0,0.4,0.2,0.7,0.6,0.7C62.3,5.6,62.6,5.5,62.7,5.3L62.7,5.3z"/>
			<path fill-rule="evenodd" clip-rule="evenodd" d="M63.7,5.5h0.6V4.3c0-0.3,0.2-0.5,0.4-0.5c0.2,0,0.3,0.1,0.3,0.4v1.3h0.6V4.1
				c0-0.5-0.2-0.7-0.7-0.7c-0.3,0-0.5,0.1-0.6,0.3V3.4h-0.6V5.5L63.7,5.5z"/>
			<path fill-rule="evenodd" clip-rule="evenodd" d="M66.5,4.4c0-0.4,0.2-0.6,0.5-0.6c0.3,0,0.5,0.2,0.5,0.6c0,0.4-0.2,0.7-0.5,0.7
				C66.7,5.1,66.5,4.9,66.5,4.4L66.5,4.4z M68,2.6h-0.6v1c-0.1-0.2-0.4-0.3-0.6-0.3c-0.5,0-0.9,0.4-0.9,1.1c0,0.7,0.4,1.1,0.9,1.1
				c0.3,0,0.5-0.1,0.6-0.4v0.3H68V2.6L68,2.6z"/>
			<polygon fill-rule="evenodd" clip-rule="evenodd" points="69.6,5.5 70.1,5.5 70.1,3.2 70.7,5.5 71.3,5.5 71.9,3.2 71.9,5.5 
				72.5,5.5 72.5,2.6 71.6,2.6 71,4.8 70.4,2.6 69.6,2.6 69.6,5.5 			"/>
			<path fill-rule="evenodd" clip-rule="evenodd" d="M73.4,4.2c0-0.3,0.2-0.4,0.4-0.4c0.3,0,0.4,0.2,0.4,0.4H73.4L73.4,4.2z
				 M74.2,4.9C74.2,5,74,5.1,73.8,5.1c-0.3,0-0.4-0.2-0.4-0.5h1.4c0-0.1,0-0.1,0-0.1c0-0.7-0.4-1.1-1-1.1c-0.6,0-1,0.4-1,1.1
				c0,0.7,0.4,1.2,1,1.2c0.5,0,0.9-0.3,1-0.7H74.2L74.2,4.9z"/>
			<path fill-rule="evenodd" clip-rule="evenodd" d="M75.1,5.5h0.6V4.3c0-0.3,0.2-0.5,0.4-0.5c0.2,0,0.3,0.1,0.3,0.4v1.3H77V4.1
				c0-0.5-0.2-0.7-0.7-0.7c-0.3,0-0.5,0.1-0.6,0.3V3.4h-0.6V5.5L75.1,5.5z"/>
			<path fill-rule="evenodd" clip-rule="evenodd" d="M78.4,5.5V5.1h-0.1c-0.2,0-0.2,0-0.2-0.1V3.8h0.3V3.4h-0.3V2.8h-0.6v0.6h-0.3
				v0.4h0.3v1.2c0,0.4,0.1,0.6,0.6,0.6C78.1,5.6,78.3,5.5,78.4,5.5L78.4,5.5z"/>
			<path fill-rule="evenodd" clip-rule="evenodd" d="M79.9,4.5v0.2c0,0.3-0.2,0.5-0.5,0.5c-0.2,0-0.3-0.1-0.3-0.3
				c0-0.2,0.1-0.2,0.3-0.3C79.5,4.6,79.7,4.6,79.9,4.5L79.9,4.5z M79.9,5.3c0,0.1,0,0.2,0.1,0.3h0.6V5.4c-0.1,0-0.1-0.1-0.1-0.3V3.9
				c0-0.4-0.3-0.6-0.9-0.6c-0.6,0-0.9,0.3-0.9,0.7v0h0.5v0c0-0.2,0.1-0.3,0.4-0.3c0.2,0,0.3,0.1,0.3,0.2c0,0.2-0.2,0.2-0.6,0.2
				c-0.5,0.1-0.7,0.3-0.7,0.7c0,0.4,0.2,0.7,0.6,0.7C79.5,5.6,79.8,5.5,79.9,5.3L79.9,5.3z"/>
			<polygon fill-rule="evenodd" clip-rule="evenodd" points="80.9,5.5 81.5,5.5 81.5,2.6 80.9,2.6 80.9,5.5 			"/>
			<polygon fill-rule="evenodd" clip-rule="evenodd" points="83.1,5.5 83.7,5.5 83.7,4.2 84.9,4.2 84.9,5.5 85.5,5.5 85.5,2.6 
				84.9,2.6 84.9,3.7 83.7,3.7 83.7,2.6 83.1,2.6 83.1,5.5 			"/>
			<path fill-rule="evenodd" clip-rule="evenodd" d="M86.4,4.2c0-0.3,0.2-0.4,0.4-0.4c0.3,0,0.4,0.2,0.4,0.4H86.4L86.4,4.2z
				 M87.3,4.9c-0.1,0.2-0.2,0.2-0.4,0.2c-0.3,0-0.4-0.2-0.4-0.5h1.4c0-0.1,0-0.1,0-0.1c0-0.7-0.4-1.1-1-1.1c-0.6,0-1,0.4-1,1.1
				c0,0.7,0.4,1.2,1,1.2c0.5,0,0.9-0.3,1-0.7H87.3L87.3,4.9z"/>
			<path fill-rule="evenodd" clip-rule="evenodd" d="M89.4,4.5v0.2c0,0.3-0.2,0.5-0.5,0.5c-0.2,0-0.3-0.1-0.3-0.3
				c0-0.2,0.1-0.2,0.3-0.3C89,4.6,89.2,4.6,89.4,4.5L89.4,4.5z M89.4,5.3c0,0.1,0,0.2,0.1,0.3h0.6V5.4c-0.1,0-0.1-0.1-0.1-0.3V3.9
				c0-0.4-0.3-0.6-0.9-0.6c-0.6,0-0.9,0.3-0.9,0.7v0h0.5v0c0-0.2,0.1-0.3,0.4-0.3c0.2,0,0.3,0.1,0.3,0.2c0,0.2-0.2,0.2-0.6,0.2
				c-0.5,0.1-0.7,0.3-0.7,0.7c0,0.4,0.2,0.7,0.6,0.7C89,5.6,89.3,5.5,89.4,5.3L89.4,5.3z"/>
			<polygon fill-rule="evenodd" clip-rule="evenodd" points="90.4,5.5 91,5.5 91,2.6 90.4,2.6 90.4,5.5 			"/>
			<path fill-rule="evenodd" clip-rule="evenodd" d="M92.4,5.5V5.1h-0.1c-0.2,0-0.2,0-0.2-0.1V3.8h0.3V3.4H92V2.8h-0.6v0.6h-0.3v0.4
				h0.3v1.2c0,0.4,0.1,0.6,0.6,0.6C92.1,5.6,92.2,5.5,92.4,5.5L92.4,5.5z"/>
			<path fill-rule="evenodd" clip-rule="evenodd" d="M92.7,5.5h0.6V4.3c0-0.3,0.2-0.5,0.4-0.5C94,3.8,94,4,94,4.4v1.1h0.6V4.1
				c0-0.2,0-0.4-0.1-0.5c-0.1-0.2-0.3-0.2-0.6-0.2c-0.3,0-0.5,0.1-0.6,0.3v-1h-0.6V5.5L92.7,5.5z"/>
			<path fill-rule="evenodd" clip-rule="evenodd" d="M96,4.6c0,0.6,0.5,1,1.2,1c0.7,0,1.2-0.4,1.2-0.9c0-0.3-0.1-0.5-0.4-0.6
				c-0.2-0.1-0.4-0.2-0.7-0.2c-0.5-0.1-0.7-0.1-0.7-0.4c0-0.2,0.2-0.3,0.5-0.3c0.4,0,0.6,0.1,0.6,0.4h0.6c0-0.6-0.4-0.9-1.1-0.9
				c-0.7,0-1.1,0.3-1.1,0.9c0,0.3,0.1,0.5,0.3,0.7c0.2,0.1,0.4,0.2,0.6,0.2c0.5,0.1,0.8,0.2,0.8,0.4c0,0.2-0.2,0.4-0.5,0.4
				c-0.4,0-0.6-0.1-0.7-0.5H96L96,4.6z"/>
			<path fill-rule="evenodd" clip-rule="evenodd" d="M99.2,4.2c0-0.3,0.2-0.4,0.4-0.4c0.3,0,0.4,0.2,0.4,0.4H99.2L99.2,4.2z
				 M100,4.9C100,5,99.8,5.1,99.6,5.1c-0.3,0-0.4-0.2-0.4-0.5h1.4c0-0.1,0-0.1,0-0.1c0-0.7-0.4-1.1-1-1.1c-0.6,0-1,0.4-1,1.1
				c0,0.7,0.4,1.2,1,1.2c0.5,0,0.9-0.3,1-0.7H100L100,4.9z"/>
			<path fill-rule="evenodd" clip-rule="evenodd" d="M100.9,5.5h0.6V4.4c0-0.3,0.2-0.5,0.5-0.5h0.2V3.3c0,0-0.1,0-0.1,0
				c-0.3,0-0.5,0.1-0.6,0.4V3.4h-0.5V5.5L100.9,5.5z"/>
			<polygon fill-rule="evenodd" clip-rule="evenodd" points="103,5.5 103.5,5.5 104.3,3.4 103.7,3.4 103.3,4.9 102.8,3.4 102.2,3.4 
				103,5.5 			"/>
			<path fill-rule="evenodd" clip-rule="evenodd" d="M104.5,5.5h0.6V3.4h-0.6V5.5L104.5,5.5z M104.5,3.2h0.6V2.6h-0.6V3.2L104.5,3.2
				z"/>
			<path fill-rule="evenodd" clip-rule="evenodd" d="M106.8,4.7c0,0.3-0.2,0.4-0.4,0.4c-0.3,0-0.4-0.2-0.4-0.6
				c0-0.4,0.1-0.7,0.4-0.7c0.2,0,0.3,0.1,0.4,0.4h0.6c0-0.5-0.4-0.8-0.9-0.8c-0.6,0-1,0.4-1,1.1c0,0.7,0.4,1.1,1,1.1
				c0.5,0,0.9-0.3,1-0.9H106.8L106.8,4.7z"/>
			<path fill-rule="evenodd" clip-rule="evenodd" d="M108.2,4.2c0-0.3,0.2-0.4,0.4-0.4c0.3,0,0.4,0.2,0.4,0.4H108.2L108.2,4.2z
				 M109,4.9c-0.1,0.2-0.2,0.2-0.4,0.2c-0.3,0-0.4-0.2-0.4-0.5h1.4c0-0.1,0-0.1,0-0.1c0-0.7-0.4-1.1-1-1.1c-0.6,0-1,0.4-1,1.1
				c0,0.7,0.4,1.2,1,1.2c0.5,0,0.9-0.3,1-0.7H109L109,4.9z"/>
			<path fill-rule="evenodd" clip-rule="evenodd" d="M109.8,4.8L109.8,4.8c0,0.5,0.3,0.8,0.9,0.8c0.7,0,1-0.3,1-0.7
				c0-0.4-0.2-0.5-0.7-0.6c-0.4-0.1-0.6-0.1-0.6-0.3c0-0.1,0.1-0.2,0.3-0.2c0.2,0,0.4,0.1,0.4,0.3h0.6c0-0.5-0.4-0.7-0.9-0.7
				c-0.5,0-0.9,0.3-0.9,0.7c0,0.4,0.2,0.5,0.7,0.6c0.4,0.1,0.6,0.1,0.6,0.3c0,0.1-0.1,0.2-0.3,0.2c-0.3,0-0.4-0.1-0.4-0.3H109.8
				L109.8,4.8z"/>
			<path fill-rule="evenodd" clip-rule="evenodd" d="M113.9,2.6l-1,2.9h0.6l0.2-0.6h1.1l0.2,0.6h0.6l-1-2.9H113.9L113.9,2.6z
				 M114.3,3.2l0.4,1.2h-0.8L114.3,3.2L114.3,3.2z"/>
			<path fill-rule="evenodd" clip-rule="evenodd" d="M116.3,4.4c0-0.4,0.2-0.6,0.5-0.6c0.3,0,0.5,0.2,0.5,0.6c0,0.4-0.2,0.7-0.5,0.7
				C116.5,5.1,116.3,4.9,116.3,4.4L116.3,4.4z M117.8,2.6h-0.6v1c-0.1-0.2-0.4-0.3-0.6-0.3c-0.5,0-0.9,0.4-0.9,1.1
				c0,0.7,0.4,1.1,0.9,1.1c0.3,0,0.5-0.1,0.6-0.4v0.3h0.5V2.6L117.8,2.6z"/>
			<path fill-rule="evenodd" clip-rule="evenodd" d="M118.2,5.5h0.6V4.2c0-0.3,0.1-0.4,0.4-0.4c0.2,0,0.3,0.1,0.3,0.3v1.4h0.6V4.2
				c0-0.3,0.1-0.4,0.4-0.4c0.2,0,0.3,0.1,0.3,0.3v1.4h0.6V4c0-0.4-0.3-0.7-0.7-0.7c-0.3,0-0.5,0.1-0.6,0.3c-0.1-0.2-0.3-0.3-0.6-0.3
				c-0.2,0-0.4,0.1-0.6,0.3V3.4h-0.5V5.5L118.2,5.5z"/>
			<path fill-rule="evenodd" clip-rule="evenodd" d="M121.7,5.5h0.6V3.4h-0.6V5.5L121.7,5.5z M121.7,3.2h0.6V2.6h-0.6V3.2L121.7,3.2
				z"/>
			<path fill-rule="evenodd" clip-rule="evenodd" d="M122.7,5.5h0.6V4.3c0-0.3,0.2-0.5,0.4-0.5c0.2,0,0.3,0.1,0.3,0.4v1.3h0.6V4.1
				c0-0.5-0.2-0.7-0.7-0.7c-0.3,0-0.5,0.1-0.6,0.3V3.4h-0.6V5.5L122.7,5.5z"/>
			<path fill-rule="evenodd" clip-rule="evenodd" d="M125,5.5h0.6V3.4H125V5.5L125,5.5z M125,3.2h0.6V2.6H125V3.2L125,3.2z"/>
			<path fill-rule="evenodd" clip-rule="evenodd" d="M126,4.8L126,4.8c0,0.5,0.3,0.8,0.9,0.8c0.7,0,1-0.3,1-0.7
				c0-0.4-0.2-0.5-0.7-0.6c-0.4-0.1-0.6-0.1-0.6-0.3c0-0.1,0.1-0.2,0.3-0.2c0.2,0,0.4,0.1,0.4,0.3h0.6c0-0.5-0.4-0.7-0.9-0.7
				c-0.5,0-0.9,0.3-0.9,0.7c0,0.4,0.2,0.5,0.7,0.6c0.4,0.1,0.6,0.1,0.6,0.3c0,0.1-0.1,0.2-0.3,0.2c-0.3,0-0.4-0.1-0.4-0.3H126
				L126,4.8z"/>
			<path fill-rule="evenodd" clip-rule="evenodd" d="M129.2,5.5V5.1H129c-0.2,0-0.2,0-0.2-0.1V3.8h0.3V3.4h-0.3V2.8h-0.6v0.6H128
				v0.4h0.3v1.2c0,0.4,0.1,0.6,0.6,0.6C128.9,5.6,129,5.5,129.2,5.5L129.2,5.5z"/>
			<path fill-rule="evenodd" clip-rule="evenodd" d="M129.4,5.5h0.6V4.4c0-0.3,0.2-0.5,0.5-0.5h0.2V3.3c0,0-0.1,0-0.1,0
				c-0.3,0-0.5,0.1-0.6,0.4V3.4h-0.5V5.5L129.4,5.5z"/>
			<path fill-rule="evenodd" clip-rule="evenodd" d="M132.2,4.5v0.2c0,0.3-0.2,0.5-0.5,0.5c-0.2,0-0.3-0.1-0.3-0.3
				c0-0.2,0.1-0.2,0.3-0.3C131.8,4.6,131.9,4.6,132.2,4.5L132.2,4.5z M132.2,5.3c0,0.1,0,0.2,0.1,0.3h0.6V5.4
				c-0.1,0-0.1-0.1-0.1-0.3V3.9c0-0.4-0.3-0.6-0.9-0.6c-0.6,0-0.9,0.3-0.9,0.7v0h0.5v0c0-0.2,0.1-0.3,0.4-0.3c0.2,0,0.4,0.1,0.4,0.2
				c0,0.2-0.2,0.2-0.6,0.2c-0.5,0.1-0.7,0.3-0.7,0.7c0,0.4,0.2,0.7,0.6,0.7C131.8,5.6,132,5.5,132.2,5.3L132.2,5.3z"/>
			<path fill-rule="evenodd" clip-rule="evenodd" d="M134.1,5.5V5.1h-0.1c-0.2,0-0.2,0-0.2-0.1V3.8h0.3V3.4h-0.3V2.8h-0.6v0.6h-0.3
				v0.4h0.3v1.2c0,0.4,0.1,0.6,0.6,0.6C133.8,5.6,133.9,5.5,134.1,5.5L134.1,5.5z"/>
			<path fill-rule="evenodd" clip-rule="evenodd" d="M134.4,5.5h0.6V3.4h-0.6V5.5L134.4,5.5z M134.4,3.2h0.6V2.6h-0.6V3.2L134.4,3.2
				z"/>
			<path fill-rule="evenodd" clip-rule="evenodd" d="M135.3,4.5c0,0.7,0.4,1.1,1.1,1.1c0.7,0,1.1-0.4,1.1-1.1c0-0.7-0.4-1.1-1.1-1.1
				C135.7,3.3,135.3,3.7,135.3,4.5L135.3,4.5z M135.9,4.5c0-0.4,0.2-0.7,0.5-0.7c0.3,0,0.5,0.2,0.5,0.7c0,0.4-0.2,0.7-0.5,0.7
				C136.1,5.1,135.9,4.9,135.9,4.5L135.9,4.5z"/>
			<path fill-rule="evenodd" clip-rule="evenodd" d="M137.8,5.5h0.6V4.3c0-0.3,0.2-0.5,0.4-0.5c0.2,0,0.3,0.1,0.3,0.4v1.3h0.6V4.1
				c0-0.5-0.2-0.7-0.7-0.7c-0.3,0-0.5,0.1-0.6,0.3V3.4h-0.6V5.5L137.8,5.5z"/>
		</g>
		<path d="M8.4,5.4c0.2,2.2,0.4,5,1,7c1.1,4.4,1.6,8.1,6.1,1.2c3-4.5,3.1-5.1,7.2-13c0,0-5.8,6.9-8.5,9.6c-0.8,0.8-1.9,2.3-3.2,0.3
			C9.4,8.2,8.4,5.4,8.4,5.4z"/>
		<path d="M15.1,29.6c-0.2-2.2-0.4-4.9-0.9-6.8c-1.1-4.3-1.8-8.4-6-1.3C5.5,26,5,26.7,1,34.4c0,0,6-6.9,8.6-9.4
			c0.8-0.8,1.8-2.2,3.1-0.3C14.2,26.8,15.1,29.6,15.1,29.6z"/>
		<ellipse cx="12.6" cy="7.7" rx="1.9" ry="2.1"/>
	</g>
</g>
</svg>
