<?xml version="1.0" encoding="utf-8"?>
<!-- Generator: Adobe Illustrator 18.0.0, SVG Export Plug-In . SVG Version: 6.00 Build 0)  -->
<!DOCTYPE svg PUBLIC "-//W3C//DTD SVG 1.1//EN" "http://www.w3.org/Graphics/SVG/1.1/DTD/svg11.dtd">
<svg version="1.1" id="Layer_1" xmlns="http://www.w3.org/2000/svg" xmlns:xlink="http://www.w3.org/1999/xlink" x="0px" y="0px"
	 width="145px" height="112px" viewBox="-8.5 -10 145 112" enable-background="new -8.5 -10 145 112" xml:space="preserve">
<g>
	
		<image overflow="visible" opacity="0.25" width="158" height="124" xlink:href="473AF2663C892F1B.png"  transform="matrix(1 0 0 1 -15 -16)">
	</image>
	<g>
		<g>
			
				<ellipse transform="matrix(-0.104 -0.9946 0.9946 -0.104 24.9045 114.4399)" fill="#FFFFFF" cx="64" cy="46" rx="45.8" ry="63.7"/>
			<path fill="#B3C4CA" d="M47.8,30.8c-2,4-1.8,13.3-2,18.3c-0.2,5,0.1,6,1.1,6.6c1,0.6,2.3-1.4,2.3-0.4c0,1,0.2,17.6,0.2,18.9
				c0,1.4,4,2.3,4.6,0.6c1.3-3.8,2.1-17.5,2.1-17.5s0.4,13.7,1,16.6c0.3,1.3,2.3,4,4.9,1.2c2.4-2.6,1.6-44.8,1.6-44.8L47.8,30.8z"/>
			<path fill="#B2BFCA" d="M60,22.2c0,2.8-1.4,5-3.1,5c-1.7,0-3.1-2.3-3-5.1c0-2.8,1.4-5,3.1-5C58.6,17.2,60,19.4,60,22.2"/>
			<path fill="#F6D1B6" d="M72.5,23.1c0,2.8-1.4,5-3.1,5c-1.7,0-3.1-2.3-3.1-5.1c0-2.8,1.4-5.1,3.1-5C71.2,18,72.5,20.3,72.5,23.1"
				/>
			<path fill="#21678B" d="M123.5,48.5c0-0.1,0-0.2,0.1-0.4c0.5-6.4,1.1-14.5-5.8-24.1c-4-5.6-15.8-17.9-37-20.3
				c-23.7-2.7-39.5,2.2-47.8,6.9C8.9,23.9,5.2,38.3,4.7,40.6L9.2,36l4.7,4.9c2.7-6.5,9.9-15.8,22.5-22.8c13.8-7.8,35-7.6,44.9-6.2
				c13.8,1.9,20.2,7.4,27,14.9c7.6,8.3,5.7,20.6,5.6,21.6l-3.2,0l2.9,3.1l4.9,5.1l4.4-4.6l3.3-3.4L123.5,48.5z"/>
			<path fill="#F89728" d="M113.7,51.4L113.7,51.4c-2.8,5.8-10.1,16.1-22.3,23c-13.8,7.8-35,7.6-44.9,6.2
				c-13.8-1.9-20.2-7.4-27-14.9c-7.6-8.3-5.8-20.6-5.6-21.6l3.1,0L9.2,36l-4.5,4.6l0,0L1.4,44h2.7c0,0.1,0,0.2-0.1,0.4
				C3.6,50.7,3.1,59,9.9,68.5c4,5.6,15.8,17.9,37,20.3c23.7,2.8,38.4-1.7,46.7-6.3c23.9-13.3,28.7-28.2,29.3-30.6l-4.4,4.6
				L113.7,51.4z"/>
			<polygon fill="#21678B" points="9.2,36 4.7,40.6 4.7,40.6 			"/>
			<path fill="#F4D4B8" d="M75.6,51.5c-0.7-1.9-1.7-4.4-1.3-6.3c0.4-2.1-0.6,27.6-0.5,28.5c0.2,2.2-3.4,3.1-4,0.5
				c-0.7-3.6-1.8-17.4-1.8-16.1c0,1.3-1.7,12.7-1.9,16.7c-0.1,1.4-4.5,1.9-4.2-0.7S63,45,63,45s1.1-9.7,0.3-11.1
				c-0.8-1.3-16-2.8-16-2.8s1.6-1.5,3.4-1.8c1.8-0.4,6.1-1.2,7.9-1.2c1.8,0,8.4-0.2,9.4-0.2c1,0,1.9,0.2,2.1,0.8
				c0.2,0.6,1,0.5,2.2,1.1c1.2,0.6,3.7,2.6,4.9,6.4c1.5,4.9,1.7,11.2,2.5,15.7c0.9,5.6-0.8,4-2.5,3.4L75.6,51.5z"/>
			<path fill="#22668B" d="M39.9,41.7c0,1.3-0.4,2.4-1.1,3.4c-0.6,0.9-1.5,1.5-2.5,1.9c-0.9,0.4-2.1,0.6-3.4,0.6
				c-1.6,0-3.2-0.4-4.8-1.2l-0.1-0.3c0.2-0.9,0.3-2.2,0.4-3.8l0.1-0.1l0.7,0l0.1,0.1v0.3c0,0.4,0,1,0.1,1.7c0.3,0.5,0.8,0.9,1.5,1.3
				c0.7,0.4,1.5,0.6,2.3,0.6c1.5,0,2.6-0.5,3.2-1.6c0.3-0.5,0.5-1.1,0.5-1.7c0-1-0.4-1.7-1.2-2.2c-0.4-0.2-1.1-0.4-2-0.5
				c-2.1-0.3-3.4-0.8-4-1.2c-1-0.7-1.5-1.9-1.4-3.4c0-1.6,0.6-2.9,1.6-3.8c1.1-1,2.7-1.5,4.7-1.5c1.8,0,3.3,0.3,4.4,0.9l0.1,0.3
				c-0.2,0.9-0.3,2-0.4,3.3L38.6,35l-0.7,0l-0.1-0.1c0-0.9,0-1.5-0.1-1.8c-0.2-0.4-0.7-0.7-1.2-1c-0.6-0.3-1.3-0.4-2-0.4
				c-1,0-1.8,0.3-2.5,0.8c-0.6,0.5-0.9,1.2-0.9,2c0,0.9,0.3,1.6,0.9,2c0.4,0.3,1.4,0.6,3,0.8c0.2,0,0.6,0.1,1.4,0.2
				c0.5,0.1,0.9,0.2,1.3,0.3c0.8,0.3,1.4,0.8,1.7,1.4C39.8,39.9,40,40.7,39.9,41.7"/>
			<path fill="#22668B" d="M52,42.3c0-2.3-1.2-3.5-3.6-3.5c-0.3,0-0.7,0-1,0l0,5.4c0,0.6,0,1.2,0,1.7C47.6,46,48,46,48.5,46
				c1.1,0,1.9-0.3,2.5-1C51.7,44.4,51.9,43.5,52,42.3 M51.5,34.6c0-1.7-0.9-2.6-2.6-2.6c-0.6,0-1.1,0-1.5,0.1c0,0.8-0.1,1.6-0.1,2.3
				l0,3.2c0.2,0,0.5,0,1.1,0c1.4,0,2.3-0.4,2.8-1.3C51.4,35.7,51.5,35.2,51.5,34.6 M55.5,42c0,2-1,3.5-2.8,4.5
				c-0.9,0.5-2.1,0.8-3.6,0.8c-0.5,0-0.8,0-1.2,0l-2.8-0.1c-1,0-1.8,0-2.3,0l-0.1-0.1v-0.3l0.1-0.1c0.6-0.4,0.9-0.6,0.9-0.7
				c0.1-0.1,0.1-0.7,0.1-1.5l0.1-2.6l0-5.9c0-1.8,0-3.1-0.1-3.6c0-0.2-0.2-0.4-0.4-0.4c-0.1,0-0.6-0.1-1.3-0.1L42,31.6l0-0.8
				l0.1-0.1c0.7,0.1,1.9,0.1,3.5,0.1c1.1,0,2,0,2.9,0c0.7,0,1.3,0,1.7,0c2.2,0,3.6,0.5,4.2,1.5c0.3,0.5,0.5,1.1,0.5,1.8
				c0,1.1-0.5,2-1.3,2.8c-0.4,0.3-0.8,0.6-1.3,0.8c-0.5,0.2-1.1,0.3-1.7,0.5C53.9,38.2,55.5,39.5,55.5,42"/>
			<path fill="#22668B" d="M65.1,47.3L65,47.4c-0.8-0.1-2-0.1-3.6-0.1c-1.6,0-2.8,0-3.6,0l-0.1-0.1l0-0.8l0.1-0.1
				c0.8,0,1.2-0.1,1.4-0.1c0.2-0.1,0.4-0.2,0.4-0.4c0.1-0.6,0.2-1.8,0.2-3.6l0-6.2c0-1.9,0-3.1-0.1-3.6c0-0.2-0.2-0.4-0.4-0.4
				c-0.1,0-0.6-0.1-1.4-0.1l-0.1-0.1l0-0.8l0.1-0.1c0.7,0.1,1.9,0.1,3.6,0.1c1.6,0,2.8,0,3.6,0l0.1,0.1l0,0.8l-0.1,0.1
				c-0.8,0-1.2,0.1-1.3,0.1c-0.2,0.1-0.4,0.2-0.4,0.4c-0.1,0.6-0.2,1.8-0.2,3.6l-0.1,6.2c0,1.9,0,3,0.1,3.6c0,0.2,0.2,0.4,0.4,0.4
				c0.1,0,0.6,0.1,1.4,0.1l0.1,0.1L65.1,47.3z"/>
			<path fill="#22668B" d="M82.6,47.5l-0.1,0.1c-0.1,0-0.2,0-0.4,0c-1.1,0-1.7-0.1-2-0.1c-0.4,0-1,0-1.9,0c0-0.2-0.2-0.5-0.4-0.9
				l-2.8-4.9l-1.3-2c-0.2-0.2-0.4-0.5-0.7-0.7l0.1-0.4c0.2,0,0.3,0,0.4,0c0.8,0,1.3-0.1,1.8-0.3c0.4-0.2,0.8-0.6,1.1-1.1
				c0.3-0.5,0.5-1.2,0.5-2c0-1.3-0.5-2.2-1.4-2.7c-0.5-0.2-1.1-0.3-2-0.3c-0.4,0-0.8,0-1.1,0.1c-0.1,0.8-0.1,2.1-0.2,3.9l-0.1,6.1
				c0,1.9,0,3.1,0.1,3.6c0,0.2,0.2,0.4,0.4,0.4c0.1,0,0.6,0.1,1.4,0.1l0.1,0.1l0,0.8L74,47.5c-0.8-0.1-2-0.1-3.6-0.1
				c-1.7,0-2.8,0-3.6,0l-0.1-0.1l0-0.8l0.1-0.1c0.8,0,1.2-0.1,1.4-0.1c0.2-0.1,0.3-0.2,0.4-0.4c0.1-0.6,0.2-1.8,0.2-3.6l0.1-6.2
				c0-1.9,0-3.1-0.1-3.6c0-0.2-0.2-0.4-0.4-0.4c-0.1,0-0.6-0.1-1.3-0.1l-0.1-0.1l0-0.8l0.1-0.1C67.8,31,69,31,70.7,31
				c0.9,0,1.7,0,2.3,0c1.2,0,2,0,2.6,0c1.3,0,2.3,0.1,2.9,0.4c0.8,0.3,1.4,0.9,1.7,1.7c0.1,0.4,0.2,0.8,0.2,1.4
				c0,2.1-1.2,3.6-3.6,4.5c0.4,0.7,0.8,1.3,1.2,2l1.8,2.8c1,1.6,1.7,2.6,2.1,2.8c0.2,0.1,0.4,0.2,0.7,0.2l0.1,0.1L82.6,47.5z"/>
			<path fill="#22668B" d="M97.1,31.2c-0.1,0.6-0.2,1.2-0.2,1.8l0,2l-0.1,0.1l-0.7,0L95.9,35c0-1-0.1-1.6-0.1-1.8
				c-0.1-0.3-0.3-0.5-0.7-0.6c-0.2,0-0.9,0-2.2-0.1l-1.6,0c0,0.3,0,1.3-0.1,3.2l-0.1,6.6c0,1.9,0,3.1,0.1,3.6c0,0.2,0.2,0.4,0.4,0.4
				c0.1,0,0.6,0.1,1.4,0.1l0.1,0.1l0,0.8l-0.1,0.1c-0.8-0.1-1.9-0.1-3.6-0.1c-1.7,0-2.8,0-3.6,0l-0.1-0.1l0-0.8l0.1-0.1
				c0.8,0,1.2-0.1,1.3-0.1c0.2-0.1,0.4-0.2,0.4-0.4c0.1-0.6,0.2-1.8,0.2-3.6l0.1-6.6c0-1.9,0-3,0-3.2l-1.7,0c-1.4,0-2.2,0-2.4,0.1
				c-0.1,0-0.2,0.1-0.3,0.2c-0.1,0.1-0.1,0.4-0.2,0.7c-0.1,0.4-0.1,0.8-0.1,1.3l-0.1,0.1l-0.7,0l-0.1-0.1l0-2c0-0.6,0-1.1-0.1-1.7
				l0.1-0.1c0.4,0.1,2.1,0.1,5,0.2l4.6,0.1c2.6,0,4.3,0,5-0.1L97.1,31.2z"/>
			<path fill="#21678B" d="M23.1,56.4c0,0.3-0.1,0.6-0.3,0.8c-0.1,0.2-0.3,0.4-0.6,0.5c-0.2,0.1-0.5,0.1-0.8,0.1
				c-0.4,0-0.8-0.1-1.1-0.3l0-0.1c0-0.2,0.1-0.5,0.1-0.9l0,0h0.2l0,0v0.1c0,0.1,0,0.2,0,0.4c0.1,0.1,0.2,0.2,0.3,0.3
				c0.2,0.1,0.4,0.1,0.5,0.1c0.4,0,0.6-0.1,0.8-0.4c0.1-0.1,0.1-0.3,0.1-0.4c0-0.2-0.1-0.4-0.3-0.5c-0.1,0-0.2-0.1-0.5-0.1
				c-0.5-0.1-0.8-0.2-1-0.3c-0.2-0.2-0.3-0.5-0.3-0.8c0-0.4,0.1-0.7,0.4-0.9c0.3-0.2,0.6-0.3,1.1-0.3c0.4,0,0.8,0.1,1,0.2l0,0.1
				c0,0.2-0.1,0.5-0.1,0.8l0,0h-0.2l0,0c0-0.2,0-0.4,0-0.4c-0.1-0.1-0.1-0.2-0.3-0.2C22,54,21.8,54,21.7,54c-0.2,0-0.4,0.1-0.6,0.2
				c-0.1,0.1-0.2,0.3-0.2,0.5c0,0.2,0.1,0.4,0.2,0.5c0.1,0.1,0.3,0.1,0.7,0.2c0,0,0.1,0,0.3,0.1c0.1,0,0.2,0.1,0.3,0.1
				c0.2,0.1,0.3,0.2,0.4,0.3C23.1,56,23.1,56.2,23.1,56.4"/>
			<path fill="#21678B" d="M25.7,57.4l-0.1,0.3c-0.2,0.1-0.5,0.2-0.7,0.2c-0.4,0-0.7-0.1-0.9-0.4c-0.2-0.2-0.3-0.6-0.3-1
				c0-0.4,0.1-0.7,0.3-0.9c0-0.1,0.1-0.1,0.3-0.2c0.3-0.2,0.4-0.3,0.5-0.3s0.2-0.1,0.4,0c0.2,0,0.5,0,0.6,0.1l0,0c0,0,0,0.1,0,0.3
				l0,0.2c0,0,0,0.2,0,0.4l0,0h-0.2l0,0c0-0.2,0-0.3,0-0.3c-0.1-0.2-0.2-0.2-0.5-0.2c-0.4,0-0.6,0.2-0.6,0.8c0,0.4,0.1,0.7,0.2,0.9
				c0.2,0.2,0.4,0.3,0.7,0.3C25.4,57.4,25.5,57.4,25.7,57.4L25.7,57.4z"/>
			<path fill="#21678B" d="M28,55l0,0.5c0,0.1,0,0.2,0,0.3l-0.1,0c-0.1-0.1-0.2-0.2-0.4-0.2c-0.1,0-0.2,0-0.3,0.2
				c0,0.1-0.1,0.2-0.1,0.3v0.7c0,0.1,0,0.3,0,0.6c0,0.1,0,0.1,0.1,0.1c0,0,0.2,0,0.4,0l0,0v0.2l0,0c-0.3,0-0.5,0-0.8,0
				c-0.3,0-0.6,0-0.7,0l-0.1,0v-0.2l0,0c0.2,0,0.3,0,0.3,0c0,0,0.1-0.1,0.1-0.1c0-0.2,0-0.5,0-0.8v-0.4c0-0.4,0-0.6,0-0.6
				c0,0-0.1-0.1-0.1-0.1c0,0-0.1,0-0.2,0l0,0v-0.2l0,0c0.3,0,0.7-0.1,1-0.2l0.1,0l0,0.5c0.1-0.1,0.2-0.3,0.4-0.5
				c0.1-0.1,0.2-0.1,0.3-0.1C27.9,55,28,55,28,55"/>
			<path fill="#21678B" d="M29.9,56.1c0-0.5-0.1-0.8-0.5-0.8c-0.3,0-0.5,0.2-0.5,0.7v0.1c0.1,0,0.3,0,0.6,0
				C29.7,56.2,29.9,56.2,29.9,56.1C29.9,56.1,29.9,56.1,29.9,56.1 M30.6,56.2c0,0,0,0.1,0,0.1h0c-0.2,0.1-0.5,0.1-1,0.1h-0.3
				c-0.1,0-0.2,0-0.3,0c0,0.3,0.1,0.5,0.2,0.7c0.2,0.2,0.4,0.3,0.6,0.3c0.2,0,0.4-0.1,0.6-0.2l0.1,0.1l-0.1,0.3
				c-0.3,0.2-0.5,0.3-0.9,0.3c-0.4,0-0.7-0.1-0.9-0.4c-0.2-0.2-0.3-0.6-0.3-1c0-0.5,0.1-0.9,0.4-1.1c0.3-0.3,0.7-0.4,1-0.4
				c0.3,0,0.6,0.1,0.8,0.3C30.5,55.5,30.6,55.8,30.6,56.2"/>
			<path fill="#21678B" d="M32.7,56.1c0-0.5-0.1-0.8-0.5-0.8c-0.3,0-0.5,0.2-0.5,0.8v0.1c0.1,0,0.3,0,0.6,0
				C32.5,56.2,32.6,56.2,32.7,56.1C32.7,56.2,32.7,56.1,32.7,56.1 M33.4,56.2L33.4,56.2l0,0.1c-0.2,0.1-0.6,0.1-1,0.1
				c-0.1,0-0.2,0-0.3,0c-0.1,0-0.2,0-0.3,0c0,0.3,0.1,0.5,0.2,0.7c0.2,0.2,0.4,0.3,0.6,0.3c0.2,0,0.4-0.1,0.6-0.2l0.1,0.1l-0.1,0.3
				c-0.3,0.2-0.5,0.3-0.9,0.2c-0.4,0-0.7-0.1-0.9-0.4c-0.2-0.2-0.3-0.6-0.3-1c0-0.5,0.1-0.9,0.4-1.1c0.3-0.3,0.6-0.4,0.9-0.4
				c0.3,0,0.6,0.1,0.8,0.3C33.3,55.6,33.4,55.9,33.4,56.2"/>
			<path fill="#21678B" d="M36.8,57.8L36.8,57.8c-0.2,0-0.4,0-0.5,0c-0.1,0-0.3,0-0.5,0l0,0c0-0.4,0-0.7,0-1l0-0.5
				c0-0.5-0.2-0.7-0.5-0.7c-0.2,0-0.3,0.1-0.4,0.2c-0.1,0.1-0.1,0.2-0.1,0.3l0,0.5c0,0.5,0,0.8,0,0.9c0,0.1,0.1,0.1,0.3,0.1l0,0v0.2
				l0,0c-0.2,0-0.4,0-0.7,0c-0.3,0-0.6,0-0.7,0l0,0v-0.2l0,0c0.2,0,0.3,0,0.3,0s0.1-0.1,0.1-0.1c0-0.2,0-0.5,0-0.8v-0.4
				c0-0.4,0-0.6,0-0.6c0,0-0.1-0.1-0.1-0.1c0,0-0.1,0-0.2,0l0,0v-0.2l0,0c0.3,0,0.7-0.1,1-0.2l0,0v0.5l0.5-0.4
				c0.1,0,0.2-0.1,0.4-0.1c0.3,0,0.5,0.1,0.6,0.3c0.1,0.1,0.2,0.4,0.2,0.6c0,0,0,0.2,0,0.4c0,0.2,0,0.4,0,0.5c0,0.3,0,0.5,0,0.5
				c0,0.1,0,0.1,0.1,0.2c0,0,0.1,0,0.3,0l0,0L36.8,57.8z"/>
			<path fill="#21678B" d="M38.3,54.2c0,0.1,0,0.2-0.1,0.3c-0.1,0.1-0.2,0.1-0.3,0.1c-0.1,0-0.2,0-0.3-0.1s-0.1-0.2-0.1-0.3
				c0-0.1,0-0.2,0.1-0.3s0.2-0.1,0.3-0.1s0.2,0,0.3,0.1C38.3,53.9,38.3,54,38.3,54.2 M38.7,57.8L38.7,57.8c-0.2,0-0.4,0-0.8,0
				c-0.3,0-0.6,0-0.7,0l0,0v-0.2l0,0c0.2,0,0.3,0,0.3,0s0.1-0.1,0.1-0.1c0-0.2,0-0.5,0-0.8l0-0.4c0-0.4,0-0.6,0-0.6
				c0,0,0-0.1-0.1-0.1c0,0-0.1,0-0.2,0l0,0v-0.2l0,0c0.3,0,0.7-0.1,1-0.2l0.1,0c0,0.3,0,0.6,0,0.9l0,0.9c0,0.1,0,0.3,0,0.6
				c0,0.1,0,0.1,0.1,0.1c0,0,0.1,0,0.3,0l0,0L38.7,57.8z"/>
			<path fill="#21678B" d="M42.1,57.8L42.1,57.8c-0.2,0-0.4,0-0.5,0c-0.1,0-0.3,0-0.5,0l0,0c0-0.4,0-0.7,0-1l0-0.5
				c0-0.5-0.2-0.7-0.5-0.7c-0.2,0-0.3,0.1-0.4,0.2C40.1,55.9,40,56,40,56.1l0,0.5c0,0.5,0,0.8,0,0.9c0,0.1,0.1,0.1,0.3,0.1l0,0v0.2
				l0,0c-0.2,0-0.4,0-0.7,0c-0.3,0-0.6,0-0.7,0l0,0v-0.2l0,0c0.2,0,0.3,0,0.3,0c0,0,0.1-0.1,0.1-0.1c0-0.2,0-0.5,0-0.8l0-0.4
				c0-0.4,0-0.6,0-0.6c0,0,0-0.1-0.1-0.1c0,0-0.1,0-0.2,0l0,0v-0.2l0,0c0.3,0,0.7-0.1,1-0.2l0.1,0l0,0.5l0.5-0.4
				c0.1,0,0.2-0.1,0.4-0.1c0.3,0,0.5,0.1,0.7,0.3c0.1,0.1,0.2,0.4,0.2,0.6c0,0,0,0.2,0,0.4c0,0.2,0,0.4,0,0.5c0,0.3,0,0.5,0,0.5
				c0,0.1,0,0.1,0.1,0.2c0,0,0.1,0,0.3,0l0,0L42.1,57.8L42.1,57.8z"/>
			<path fill="#21678B" d="M44.1,56.1c0-0.5-0.2-0.7-0.5-0.7s-0.5,0.2-0.5,0.6c0,0.5,0.1,0.7,0.5,0.7C44,56.8,44.1,56.5,44.1,56.1
				 M44.6,58.4c0-0.2-0.1-0.3-0.2-0.4c-0.1,0-0.2,0-0.3,0l-0.5,0c-0.1,0-0.1,0-0.2,0c-0.2,0.2-0.4,0.3-0.4,0.5
				c0,0.2,0.1,0.3,0.2,0.4c0.2,0.1,0.3,0.2,0.6,0.2c0.3,0,0.5-0.1,0.6-0.2C44.5,58.8,44.6,58.6,44.6,58.4 M45.2,58.1
				c0,0.4-0.2,0.7-0.5,1c-0.3,0.2-0.7,0.4-1.2,0.3c-0.4,0-0.7-0.1-0.9-0.2c-0.2-0.2-0.3-0.3-0.3-0.6c0-0.2,0-0.3,0.1-0.4
				c0,0,0.1-0.1,0.3-0.2C42.9,58,43,58,43,58c-0.2,0-0.4-0.2-0.4-0.4c0-0.1,0-0.2,0.1-0.3c0,0,0.1,0,0.2-0.1c0,0,0.1-0.1,0.2-0.2
				c-0.4-0.2-0.6-0.4-0.6-0.8c0-0.3,0.1-0.5,0.3-0.7c0.2-0.2,0.5-0.3,0.9-0.3c0.3,0,0.6,0.1,0.8,0.2c0.1,0,0.2,0,0.2,0
				c0.1,0,0.2,0,0.4,0h0l0,0.3l0,0h-0.4c0,0.1,0,0.2,0,0.3c0,0.4-0.2,0.7-0.6,0.9C44,57,43.8,57,43.6,57c-0.1,0-0.2,0-0.2,0
				c-0.1,0.1-0.2,0.2-0.2,0.2s0.1,0.1,0.2,0.2c0.1,0,0.2,0,0.4,0c0.1,0,0.1,0,0.3,0c0.1,0,0.2,0,0.3,0c0.4,0,0.7,0.1,0.8,0.3
				C45.2,57.8,45.2,57.9,45.2,58.1"/>
			<path fill="#21678B" d="M45.3,58.8c0.2-0.5,0.4-1,0.5-1.5l0.3-0.1c0.1,0,0.3-0.1,0.4-0.1l0.1,0.1c-0.1,0.2-0.2,0.4-0.4,0.7
				c-0.2,0.3-0.3,0.6-0.5,0.8L45.3,58.8L45.3,58.8z"/>
			<path fill="#21678B" d="M50.6,56.8c0-0.6-0.3-0.8-0.8-0.8c-0.1,0-0.2,0-0.2,0l0,1.3c0,0.1,0,0.3,0,0.4c0.1,0,0.2,0,0.3,0
				c0.3,0,0.5-0.1,0.6-0.2C50.5,57.3,50.6,57,50.6,56.8 M50.5,54.9c0-0.4-0.2-0.6-0.6-0.6c-0.1,0-0.3,0-0.4,0c0,0.2,0,0.4,0,0.5
				l0,0.8c0,0,0.1,0,0.2,0c0.3,0,0.5-0.1,0.7-0.3C50.5,55.2,50.5,55,50.5,54.9 M51.4,56.7c0,0.5-0.2,0.8-0.7,1.1
				c-0.2,0.1-0.5,0.2-0.8,0.2c-0.1,0-0.2,0-0.3,0l-0.7,0c-0.2,0-0.4,0-0.5,0l0,0v-0.1l0,0c0.1-0.1,0.2-0.1,0.2-0.2c0,0,0-0.2,0-0.4
				l0-0.6l0-1.4c0-0.4,0-0.7,0-0.9c0,0,0-0.1-0.1-0.1c0,0-0.1,0-0.3,0l0,0V54l0,0c0.2,0,0.4,0,0.8,0c0.2,0,0.5,0,0.7,0
				c0.2,0,0.3,0,0.4,0c0.5,0,0.8,0.1,1,0.4c0.1,0.1,0.1,0.3,0.1,0.4c0,0.3-0.1,0.5-0.3,0.7c-0.1,0.1-0.2,0.1-0.3,0.2
				c-0.1,0-0.2,0.1-0.4,0.1C51.1,55.8,51.5,56.1,51.4,56.7"/>
			<path fill="#21678B" d="M53.9,55.3l0,0.5c0,0.1,0,0.2,0,0.3l-0.1,0c-0.1-0.1-0.2-0.2-0.3-0.2c-0.1,0-0.2,0-0.3,0.2
				c-0.1,0-0.1,0.1-0.1,0.3l0,0.7c0,0.1,0,0.3,0,0.6c0,0.1,0,0.1,0.1,0.1c0,0,0.2,0,0.4,0l0,0v0.2l0,0c-0.3,0-0.5,0-0.8,0
				c-0.3,0-0.6,0-0.7,0l0,0v-0.2l0,0c0.2,0,0.3,0,0.3,0s0.1-0.1,0.1-0.1c0-0.2,0-0.5,0-0.8v-0.4c0-0.4,0-0.6,0-0.6
				c0,0,0-0.1-0.1-0.1c0,0-0.1,0-0.2,0l0,0v-0.2l0,0c0.3,0,0.7-0.1,1-0.2l0.1,0l0,0.5c0.1-0.1,0.2-0.3,0.4-0.5
				c0.1-0.1,0.2-0.1,0.3-0.1C53.8,55.2,53.9,55.2,53.9,55.3"/>
			<path fill="#21678B" d="M55.2,54.3c0,0.1,0,0.2-0.1,0.3c-0.1,0.1-0.2,0.1-0.3,0.1c-0.1,0-0.2,0-0.3-0.1c-0.1-0.1-0.1-0.2-0.1-0.3
				c0-0.1,0-0.2,0.1-0.3c0.1-0.1,0.2-0.1,0.3-0.1s0.2,0,0.3,0.1C55.2,54.1,55.2,54.2,55.2,54.3 M55.6,58L55.6,58c-0.2,0-0.4,0-0.8,0
				c-0.3,0-0.6,0-0.7,0l0,0v-0.2l0,0c0.2,0,0.3,0,0.3,0c0,0,0.1-0.1,0.1-0.1c0-0.2,0-0.5,0-0.8v-0.4c0-0.4,0-0.6,0-0.6
				c0,0,0-0.1-0.1-0.1c0,0-0.1,0-0.2,0l0,0v-0.2l0,0c0.3,0,0.7-0.1,1-0.2l0,0c0,0.3,0,0.6,0,0.9l0,0.9c0,0.1,0,0.3,0,0.6
				c0,0.1,0,0.1,0.1,0.1c0,0,0.1,0,0.3,0l0,0L55.6,58z"/>
			<path fill="#21678B" d="M57.6,56.4c0-0.5-0.2-0.8-0.5-0.8c-0.3,0-0.5,0.2-0.5,0.7v0.1c0.1,0,0.3,0,0.6,0
				C57.4,56.4,57.6,56.4,57.6,56.4C57.6,56.4,57.6,56.4,57.6,56.4 M58.3,56.5c0,0,0,0.1,0,0.1h0c-0.2,0.1-0.5,0.1-1,0.1H57
				c-0.1,0-0.2,0-0.3,0c0,0.3,0.1,0.5,0.2,0.7c0.2,0.2,0.4,0.3,0.6,0.3c0.2,0,0.4-0.1,0.6-0.2l0.1,0.1l-0.1,0.3
				c-0.3,0.2-0.5,0.3-0.9,0.3c-0.4,0-0.7-0.1-1-0.4c-0.2-0.2-0.3-0.6-0.3-1c0-0.5,0.1-0.9,0.4-1.1c0.3-0.3,0.7-0.4,1-0.4
				c0.3,0,0.6,0.1,0.8,0.3C58.3,55.8,58.4,56.1,58.3,56.5"/>
			<path fill="#21678B" d="M60.7,53.9l0,0.3v0.3l-0.1,0c-0.1-0.1-0.2-0.1-0.3-0.1c-0.2,0-0.3,0.1-0.4,0.2c0,0.1,0,0.2,0,0.5v0.4h0.2
				c0.1,0,0.3,0,0.5,0l0,0l-0.1,0.3l0,0l-0.4,0c-0.1,0-0.2,0-0.3,0v0.5c0,0.8,0,1.3,0,1.4c0,0,0,0.1,0.1,0.1c0.1,0,0.2,0,0.4,0l0,0
				v0.2l0,0l-0.2,0c-0.2,0-0.4,0-0.6,0c-0.3,0-0.6,0-0.7,0l0,0v-0.2l0,0c0.2,0,0.3,0,0.3,0c0,0,0-0.1,0.1-0.1c0-0.2,0-0.7,0-1.3
				l0-0.5c0,0-0.1,0-0.1,0c0,0-0.1,0-0.2,0c0,0-0.1,0-0.2,0l0,0v-0.1l0,0l0.2-0.1c0,0,0.1,0,0.2-0.1c0,0,0,0,0,0v0
				c0-0.3,0-0.5,0.1-0.6c0-0.1,0.1-0.1,0.1-0.2c0,0,0.1-0.1,0.3-0.3l0.2-0.2c0,0,0.1-0.1,0.2-0.2c0.1-0.1,0.2-0.1,0.4-0.1
				C60.5,53.9,60.6,53.9,60.7,53.9"/>
			<path fill="#21678B" d="M64,58.1L64,58.1c-0.2,0-0.5,0-0.9,0c-0.4,0-0.7,0-0.8,0l0,0v-0.2l0,0c0.2,0,0.3,0,0.3,0
				c0.1,0,0.1,0,0.1-0.1c0-0.1,0-0.4,0-0.9l0-1.5c0-0.4,0-0.7,0-0.9c0,0,0-0.1-0.1-0.1c0,0-0.1,0-0.3,0l0,0v-0.2l0,0
				c0.2,0,0.5,0,0.8,0c0.4,0,0.7,0,0.8,0l0,0v0.2l0,0c-0.2,0-0.3,0-0.3,0c0,0-0.1,0-0.1,0.1c0,0.1,0,0.4,0,0.9l0,1.5
				c0,0.5,0,0.7,0,0.9c0,0.1,0,0.1,0.1,0.1c0,0,0.1,0,0.3,0l0,0L64,58.1L64,58.1z"/>
			<path fill="#21678B" d="M67.5,58.1L67.5,58.1c-0.2,0-0.4,0-0.5,0c-0.1,0-0.3,0-0.6,0l0,0c0-0.4,0.1-0.7,0.1-1l0-0.5
				c0-0.5-0.2-0.7-0.5-0.7c-0.2,0-0.3,0.1-0.4,0.2c-0.1,0.1-0.1,0.2-0.1,0.3v0.5c0,0.5,0,0.8,0,0.9c0,0.1,0.1,0.1,0.3,0.1l0,0v0.2
				l0,0c-0.2,0-0.4,0-0.7,0c-0.3,0-0.6,0-0.7,0l0,0v-0.2l0,0c0.2,0,0.3,0,0.3,0s0.1-0.1,0.1-0.1c0-0.2,0-0.5,0-0.8l0-0.4
				c0-0.4,0-0.6,0-0.6c0,0-0.1-0.1-0.1-0.1c0,0-0.1,0-0.2,0l0,0v-0.1l0,0c0.3,0,0.7-0.1,1-0.2l0.1,0l0,0.5l0.5-0.4
				c0.1,0,0.2-0.1,0.4-0.1c0.3,0,0.5,0.1,0.7,0.3c0.1,0.1,0.2,0.4,0.2,0.6c0,0,0,0.2,0,0.4c0,0.2,0,0.4,0,0.5c0,0.3,0,0.5,0,0.5
				c0,0.1,0,0.1,0.1,0.2c0,0,0.1,0,0.3,0l0,0v0.1H67.5z"/>
			<path fill="#21678B" d="M69.4,57.8c0,0-0.1,0.1-0.1,0.1c-0.1,0.1-0.2,0.2-0.3,0.3c-0.1,0-0.2,0-0.3,0c-0.3,0-0.4-0.1-0.6-0.2
				c-0.1-0.1-0.1-0.1-0.1-0.2c0-0.1,0-0.2,0-0.4l0-0.7l0-0.7h-0.1h-0.1h-0.1l0,0v-0.1l0,0c0,0,0.1-0.1,0.2-0.1
				c0.1,0,0.1-0.1,0.2-0.1v-0.4c0-0.2,0-0.3,0-0.5c0.1,0,0.2-0.1,0.3-0.1c0.1,0,0.2-0.1,0.4-0.2l0.1,0.1c0,0.2,0,0.4-0.1,0.6l0,0.5
				h0.1c0.2,0,0.4,0,0.5,0l0,0l0,0.3l0,0l-0.6,0l0,1c0,0.3,0,0.5,0,0.5c0,0.1,0,0.1,0.1,0.2c0.1,0.1,0.1,0.1,0.2,0.1
				c0.1,0,0.2,0,0.3-0.1L69.4,57.8z"/>
			<path fill="#21678B" d="M71.4,56.5c0-0.5-0.1-0.8-0.4-0.8c-0.3,0-0.5,0.2-0.5,0.7v0.1c0.1,0,0.3,0,0.6,0
				C71.2,56.5,71.3,56.5,71.4,56.5C71.4,56.5,71.4,56.5,71.4,56.5 M72.1,56.6c0,0,0,0.1,0,0.1h0c-0.2,0.1-0.6,0.1-0.9,0.1
				c-0.1,0-0.2,0-0.3,0c-0.2,0-0.2,0-0.3,0c0,0.3,0.1,0.5,0.2,0.7c0.2,0.2,0.4,0.3,0.6,0.3c0.2,0,0.4-0.1,0.6-0.2l0.1,0.1L71.9,58
				c-0.3,0.2-0.6,0.3-0.9,0.3c-0.4,0-0.7-0.1-0.9-0.4c-0.2-0.2-0.3-0.6-0.3-1c0-0.5,0.1-0.9,0.4-1.1c0.3-0.3,0.7-0.4,0.9-0.4
				c0.3,0,0.6,0.1,0.8,0.3C72,55.9,72.1,56.2,72.1,56.6"/>
			<path fill="#21678B" d="M74.4,55.5l0,0.5c0,0.1,0,0.2,0,0.3l-0.1,0c-0.1-0.1-0.2-0.2-0.3-0.2c-0.1,0-0.2,0-0.3,0.2
				c-0.1,0.1-0.1,0.2-0.1,0.3l0,0.7c0,0.1,0,0.3,0,0.6c0,0.1,0,0.1,0.1,0.1c0,0,0.2,0,0.4,0l0,0v0.2l0,0c-0.3,0-0.5,0-0.8,0
				c-0.3,0-0.6,0-0.7,0l0,0v-0.2l0,0c0.2,0,0.3,0,0.3,0c0,0,0.1-0.1,0.1-0.1c0-0.2,0-0.5,0-0.8v-0.4c0-0.4,0-0.6,0-0.7
				c0,0-0.1-0.1-0.1-0.1c0,0-0.1,0-0.2,0l0,0v-0.2l0,0c0.3,0,0.7-0.1,1-0.2l0.1,0L73.5,56c0.1-0.1,0.2-0.3,0.4-0.5
				c0.1-0.1,0.2-0.1,0.3-0.1C74.3,55.4,74.4,55.4,74.4,55.5"/>
			<path fill="#21678B" d="M77.5,55.8L77.5,55.8c-0.1,0-0.2,0-0.2,0.1c0,0-0.1,0-0.1,0.1c0,0.1-0.1,0.2-0.2,0.5l-0.5,1.2
				c0,0-0.1,0.2-0.2,0.6h-0.5c-0.1-0.3-0.2-0.6-0.3-0.9c-0.2-0.5-0.3-0.9-0.5-1.3c-0.1-0.2-0.1-0.2-0.2-0.3c0,0-0.1,0-0.2,0l0,0
				v-0.2l0,0c0.2,0,0.4,0,0.7,0c0.3,0,0.5,0,0.7,0l0,0v0.2l0,0c-0.1,0-0.2,0-0.3,0c0,0-0.1,0-0.1,0.1c0,0.1,0.1,0.4,0.3,1
				c0.1,0.3,0.2,0.5,0.2,0.6c0.1-0.3,0.2-0.5,0.3-0.8c0.2-0.4,0.3-0.7,0.3-0.8c0,0,0-0.1-0.1-0.1c0,0-0.1,0-0.3,0l0,0v-0.2l0,0
				c0.1,0,0.3,0,0.5,0c0.2,0,0.4,0,0.5,0l0,0L77.5,55.8L77.5,55.8z"/>
			<path fill="#21678B" d="M79.4,56.6c0-0.5-0.1-0.8-0.4-0.8c-0.3,0-0.5,0.2-0.5,0.8v0.1c0.1,0,0.3,0,0.6,0
				C79.2,56.6,79.4,56.6,79.4,56.6L79.4,56.6L79.4,56.6z M80.1,56.6c0,0,0,0.1,0,0.1l0,0c-0.2,0.1-0.6,0.1-0.9,0.1
				c-0.1,0-0.2,0-0.3,0c-0.2,0-0.2,0-0.3,0c0,0.3,0.1,0.5,0.2,0.7c0.2,0.2,0.4,0.3,0.6,0.3c0.2,0,0.4-0.1,0.6-0.2l0.1,0.1l-0.1,0.3
				c-0.3,0.2-0.6,0.3-0.9,0.3c-0.4,0-0.7-0.1-0.9-0.4c-0.2-0.2-0.3-0.6-0.3-1c0-0.5,0.1-0.9,0.4-1.1c0.3-0.3,0.7-0.4,0.9-0.4
				c0.3,0,0.6,0.1,0.7,0.3C80,56,80.1,56.3,80.1,56.6"/>
			<path fill="#21678B" d="M83.6,58.2L83.6,58.2c-0.2,0-0.4,0-0.5,0c-0.1,0-0.3,0-0.6,0l0,0c0-0.4,0.1-0.7,0.1-1l0-0.5
				c0-0.5-0.2-0.7-0.5-0.7c-0.2,0-0.3,0.1-0.4,0.2c-0.1,0.1-0.1,0.2-0.1,0.3l0,0.5c0,0.5,0,0.8,0,0.9c0,0.1,0.1,0.1,0.3,0.1l0,0v0.2
				l0,0c-0.2,0-0.4,0-0.7,0c-0.3,0-0.6,0-0.7,0l0,0v-0.2l0,0c0.2,0,0.3,0,0.3,0s0.1-0.1,0.1-0.1c0-0.2,0-0.5,0-0.8l0-0.4
				c0-0.4,0-0.6,0-0.7c0,0-0.1-0.1-0.1-0.1c0,0-0.1,0-0.2,0l0,0v-0.2l0,0c0.3,0,0.7-0.1,1-0.2l0.1,0l0,0.5l0.5-0.4
				c0.1,0,0.2-0.1,0.4-0.1c0.3,0,0.5,0.1,0.7,0.3c0.1,0.1,0.2,0.4,0.2,0.6c0,0,0,0.2,0,0.4c0,0.2,0,0.4,0,0.5c0,0.3,0,0.5,0,0.5
				c0,0.1,0,0.1,0.1,0.2c0,0,0.1,0,0.3,0l0,0v0.1H83.6z"/>
			<path fill="#21678B" d="M85.5,57.9c0,0-0.1,0.1-0.1,0.1c-0.1,0.1-0.2,0.2-0.3,0.3c-0.1,0-0.2,0-0.3,0c-0.2,0-0.4-0.1-0.6-0.2
				c-0.1-0.1-0.1-0.1-0.1-0.2c0-0.1,0-0.2,0-0.4l0-0.7l0-0.7h-0.1H84h-0.1l0,0V56l0,0c0,0,0.1-0.1,0.2-0.1c0.1,0,0.2-0.1,0.2-0.1
				v-0.4c0-0.2,0-0.3,0-0.5c0.1,0,0.2-0.1,0.3-0.1c0.1,0,0.2-0.1,0.3-0.2l0.1,0.1c0,0.2,0,0.4-0.1,0.6l0,0.5h0.1c0.2,0,0.4,0,0.5,0
				l0,0l0,0.3l0,0l-0.6,0l0,1c0,0.3,0,0.5,0,0.5c0,0.1,0,0.1,0.1,0.2c0.1,0.1,0.1,0.1,0.2,0.1c0.1,0,0.2,0,0.3-0.1L85.5,57.9z"/>
			<path fill="#21678B" d="M86.9,54.6c0,0.1,0,0.2-0.1,0.3C86.7,55,86.6,55,86.5,55c-0.1,0-0.2,0-0.3-0.1S86,54.7,86,54.6
				c0-0.1,0-0.2,0.1-0.3s0.2-0.1,0.3-0.1c0.1,0,0.2,0,0.3,0.1C86.8,54.4,86.9,54.5,86.9,54.6 M87.2,58.3L87.2,58.3
				c-0.2,0-0.4,0-0.8,0c-0.3,0-0.6,0-0.7,0l0,0v-0.2l0,0c0.2,0,0.3,0,0.3,0c0,0,0.1-0.1,0.1-0.1c0-0.2,0-0.5,0-0.8v-0.4
				c0-0.4,0-0.6,0-0.6c0,0-0.1-0.1-0.1-0.1c0,0-0.1,0-0.2,0l0,0v-0.2l0,0c0.3,0,0.7-0.1,1.1-0.2l0.1,0c0,0.3-0.1,0.6-0.1,0.9l0,0.9
				c0,0.1,0,0.3,0,0.6c0,0.1,0,0.1,0.1,0.1c0,0,0.1,0,0.3,0l0,0L87.2,58.3L87.2,58.3z"/>
			<path fill="#21678B" d="M89.5,57.1c0-0.5-0.1-0.8-0.1-1c-0.1-0.2-0.2-0.3-0.4-0.3c-0.4,0-0.5,0.3-0.6,1c0,0.9,0.2,1.3,0.6,1.3
				c0.3,0,0.4-0.1,0.5-0.4C89.5,57.6,89.5,57.4,89.5,57.1 M90.2,56.9c0,0.7-0.2,1.1-0.7,1.3c-0.2,0.1-0.4,0.2-0.7,0.2
				c-0.4,0-0.7-0.1-0.9-0.4c-0.2-0.2-0.3-0.6-0.3-1.1c0-0.6,0.2-1.1,0.7-1.3c0.2-0.1,0.4-0.2,0.7-0.2c0.6,0,1,0.2,1.1,0.6
				C90.2,56.4,90.2,56.6,90.2,56.9"/>
			<path fill="#21678B" d="M93.7,58.3L93.7,58.3c-0.2,0-0.4,0-0.5,0c-0.1,0-0.3,0-0.6,0l0,0c0-0.4,0.1-0.7,0.1-1l0-0.5
				c0-0.5-0.2-0.7-0.5-0.7c-0.2,0-0.3,0.1-0.4,0.2c-0.1,0.1-0.1,0.2-0.1,0.3l0,0.5c0,0.5,0,0.8,0,0.9c0,0.1,0.1,0.1,0.3,0.1l0,0v0.2
				l0,0c-0.2,0-0.4,0-0.7,0c-0.3,0-0.6,0-0.7,0l0,0v-0.2l0,0c0.2,0,0.3,0,0.3,0s0.1-0.1,0.1-0.1c0-0.2,0-0.5,0-0.8v-0.4
				c0-0.4,0-0.6,0-0.6c0,0-0.1-0.1-0.1-0.1c0,0-0.1,0-0.2,0l0,0v-0.2l0,0c0.3,0,0.7-0.1,1-0.2l0.1,0l0,0.5l0.5-0.4
				c0.1,0,0.2-0.1,0.4-0.1c0.3,0,0.5,0.1,0.7,0.3c0.1,0.1,0.2,0.4,0.2,0.6c0,0,0,0.2,0,0.4c0,0.2,0,0.4,0,0.5c0,0.3,0,0.5,0,0.5
				c0,0.1,0,0.1,0.1,0.2c0,0,0.1,0,0.3,0l0,0L93.7,58.3z"/>
			<path fill="#21678B" d="M93.8,59.3c0.2-0.5,0.4-1,0.5-1.5l0.3-0.1c0.1,0,0.3-0.1,0.4-0.1l0.1,0.1c-0.1,0.2-0.2,0.4-0.4,0.7
				c-0.2,0.3-0.3,0.6-0.5,0.8L93.8,59.3L93.8,59.3z"/>
			<path fill="#21678B" d="M98.3,57.7l0-0.7c-0.3,0.1-0.5,0.1-0.6,0.2c-0.1,0.1-0.2,0.2-0.2,0.3c0,0.2,0.1,0.4,0.3,0.4
				C98,58,98.2,57.9,98.3,57.7 M99.3,58.4L99.3,58.4c-0.2,0-0.3,0-0.5,0c-0.2,0-0.3,0-0.4,0l0,0l0-0.4l-0.5,0.4c-0.1,0-0.1,0-0.2,0
				c0,0-0.1,0-0.1,0c-0.2,0-0.4-0.1-0.5-0.2c-0.1-0.1-0.2-0.3-0.2-0.5c0-0.3,0.1-0.5,0.3-0.6c0.2-0.1,0.6-0.2,1.2-0.3
				c0-0.3-0.1-0.5-0.2-0.6c-0.1-0.1-0.2-0.1-0.3-0.1c-0.1,0-0.3,0-0.3,0.1l-0.1,0.3l0,0l-0.1,0l0,0l0-0.3c0.3-0.2,0.5-0.3,0.7-0.4
				c0.1,0,0.1,0,0.2,0c0.4,0,0.6,0.1,0.8,0.3c0.1,0.1,0.2,0.3,0.2,0.6c0,0.1,0,0.2,0,0.3c0,0.3,0,0.4,0,0.5c0,0.3,0,0.5,0,0.5
				c0,0.1,0,0.1,0.1,0.1c0,0,0.1,0,0.2,0l0,0L99.3,58.4z"/>
			<path fill="#21678B" d="M102.7,58.4L102.7,58.4c-0.2,0-0.4,0-0.5,0s-0.3,0-0.6,0l0,0c0-0.4,0.1-0.7,0.1-1l0-0.5
				c0-0.5-0.2-0.7-0.5-0.7c-0.2,0-0.3,0.1-0.4,0.2c-0.1,0.1-0.1,0.2-0.1,0.3l0,0.5c0,0.5,0,0.8,0,0.9c0,0.1,0.1,0.1,0.3,0.1l0,0v0.2
				l0,0c-0.2,0-0.4,0-0.7,0c-0.3,0-0.6,0-0.7,0l0,0v-0.2l0,0c0.2,0,0.3,0,0.3,0c0,0,0.1-0.1,0.1-0.1c0-0.2,0-0.5,0-0.8v-0.4
				c0-0.4,0-0.6,0-0.6c0,0-0.1-0.1-0.1-0.1c0,0-0.1,0-0.2,0l0,0v-0.2l0,0c0.3,0,0.7-0.1,1-0.2l0.1,0l0,0.5l0.5-0.4
				c0.1,0,0.2-0.1,0.4-0.1c0.3,0,0.5,0.1,0.6,0.3c0.1,0.1,0.2,0.4,0.2,0.6c0,0,0,0.2,0,0.4s0,0.4,0,0.5c0,0.3,0,0.5,0,0.5
				c0,0.1,0,0.1,0.1,0.2c0,0,0.1,0,0.3,0l0,0L102.7,58.4L102.7,58.4z"/>
			<path fill="#21678B" d="M105,57l0-0.5c-0.1-0.2-0.2-0.3-0.4-0.3c-0.1,0-0.2,0-0.3,0c-0.2,0-0.4,0.1-0.5,0.4
				c-0.1,0.2-0.1,0.3-0.1,0.5c0,0.4,0.1,0.7,0.2,0.9c0.1,0.1,0.2,0.1,0.4,0.1c0.1,0,0.2,0,0.4-0.1c0.1-0.1,0.2-0.2,0.2-0.2
				C105,57.6,105,57.4,105,57 M106.1,58.4L106.1,58.4c-0.2,0-0.4,0-0.5,0c-0.1,0-0.3,0-0.6,0l0,0c0-0.1,0-0.2,0-0.5
				c-0.1,0.1-0.2,0.1-0.3,0.3c-0.2,0.1-0.2,0.2-0.3,0.3c-0.1,0-0.2,0-0.3,0c-0.3,0-0.6-0.1-0.7-0.4c-0.2-0.2-0.3-0.5-0.3-0.9
				c0-0.4,0.1-0.7,0.2-0.9c0-0.1,0.2-0.2,0.3-0.3c0.2-0.2,0.4-0.3,0.5-0.3c0.1,0,0.2-0.1,0.3-0.1c0.2,0,0.4,0.1,0.5,0.1v-0.1
				c0-0.5,0-0.8,0-0.9c0,0-0.1-0.1-0.1-0.1c0,0-0.1,0-0.2,0l0,0v-0.2l0,0c0.3,0,0.7-0.1,1.1-0.2l0.1,0c0,0,0,0.1,0,0.3
				c0,0.4,0,1,0,1.8l0,0.9c0,0.5,0,0.8,0,0.9c0,0,0,0.1,0.1,0.1c0,0,0.1,0,0.3,0l0,0L106.1,58.4z"/>
			<path fill="#21678B" d="M39.8,64.7L39.8,64.7c0,0-0.1,0-0.1,0c-0.2,0-0.4,0-0.5,0c-0.1,0-0.2,0-0.4,0c0-0.1,0-0.1-0.1-0.2
				l-0.7-1.2l-0.3-0.5c0-0.1-0.1-0.1-0.2-0.2l0-0.1h0.1c0.2,0,0.3,0,0.4-0.1c0.1,0,0.2-0.1,0.3-0.3c0.1-0.1,0.1-0.3,0.1-0.5
				c0-0.3-0.1-0.5-0.3-0.6c-0.1,0-0.3-0.1-0.5-0.1c-0.1,0-0.2,0-0.3,0c0,0.2,0,0.5,0,0.9l0,1.5c0,0.4,0,0.7,0,0.9
				c0,0.1,0,0.1,0.1,0.1c0,0,0.1,0,0.3,0l0,0v0.2l0,0c-0.2,0-0.5,0-0.8,0c-0.4,0-0.7,0-0.8,0l0,0v-0.2l0,0c0.2,0,0.3,0,0.3,0
				c0,0,0.1-0.1,0.1-0.1c0-0.1,0-0.4,0-0.9l0-1.5c0-0.4,0-0.7,0-0.9c0,0,0-0.1-0.1-0.1c0,0-0.1,0-0.3,0l0,0v-0.2l0,0
				c0.2,0,0.5,0,0.8,0c0.2,0,0.4,0,0.5,0c0.3,0,0.5,0,0.6,0c0.3,0,0.6,0,0.7,0.1c0.2,0.1,0.3,0.2,0.4,0.4c0,0.1,0.1,0.2,0.1,0.3
				c0,0.5-0.3,0.9-0.8,1.1c0.1,0.2,0.2,0.3,0.3,0.5l0.4,0.7c0.2,0.4,0.4,0.6,0.5,0.7c0,0,0.1,0,0.2,0l0,0L39.8,64.7z"/>
			<path fill="#21678B" d="M41.8,63.1c0-0.5-0.1-0.8-0.5-0.8c-0.3,0-0.5,0.2-0.5,0.7v0.1c0.1,0,0.3,0,0.6,0
				C41.6,63.1,41.7,63.1,41.8,63.1C41.8,63.1,41.8,63.1,41.8,63.1 M42.5,63.2c0,0,0,0.1,0,0.1h0c-0.2,0.1-0.6,0.1-1,0.1
				c-0.1,0-0.2,0-0.3,0c-0.1,0-0.2,0-0.3,0c0,0.3,0.1,0.5,0.2,0.7c0.2,0.2,0.4,0.3,0.6,0.3c0.2,0,0.4-0.1,0.6-0.2l0.1,0.1l-0.1,0.3
				c-0.3,0.2-0.5,0.3-0.9,0.2c-0.4,0-0.7-0.1-1-0.4c-0.2-0.2-0.3-0.6-0.3-1c0-0.5,0.1-0.9,0.4-1.1c0.3-0.3,0.7-0.4,1-0.4
				c0.3,0,0.6,0.1,0.8,0.3C42.4,62.5,42.5,62.8,42.5,63.2"/>
			<path fill="#21678B" d="M44.8,60.6l0,0.3v0.3l-0.1,0c-0.1-0.1-0.2-0.1-0.3-0.1c-0.2,0-0.3,0.1-0.4,0.2c0,0.1,0,0.2,0,0.5v0.4h0.2
				c0.1,0,0.3,0,0.5,0l0,0l-0.1,0.3l0,0l-0.4,0c-0.1,0-0.2,0-0.3,0l0,0.5c0,0.8,0,1.3,0,1.4c0,0,0,0.1,0.1,0.1c0,0,0.2,0,0.4,0l0,0
				v0.2l0,0l-0.2,0c-0.2,0-0.4,0-0.6,0c-0.3,0-0.6,0-0.7,0l0,0v-0.2l0,0c0.2,0,0.3,0,0.3,0c0,0,0.1-0.1,0.1-0.1c0-0.2,0-0.7,0-1.3
				l0-0.5c0,0-0.1,0-0.1,0c0,0-0.1,0-0.2,0c0,0-0.1,0-0.2,0l0,0v-0.1l0,0l0.2-0.1c0,0,0.1,0,0.2-0.1c0,0,0,0,0,0v0
				c0-0.3,0-0.5,0.1-0.6c0,0,0.1-0.1,0.1-0.2c0,0,0.1-0.1,0.3-0.3l0.2-0.2c0,0,0.1-0.1,0.2-0.2c0.1-0.1,0.2-0.1,0.4-0.1
				C44.7,60.6,44.8,60.6,44.8,60.6"/>
			<path fill="#21678B" d="M46.8,63.1c0-0.5-0.2-0.8-0.5-0.8c-0.3,0-0.5,0.2-0.5,0.7v0.1c0.1,0,0.3,0,0.6,0
				C46.5,63.2,46.7,63.2,46.8,63.1C46.7,63.2,46.8,63.1,46.8,63.1 M47.5,63.2c0,0,0,0.1,0,0.1l0,0c-0.2,0.1-0.5,0.1-0.9,0.1
				c-0.1,0-0.2,0-0.3,0s-0.2,0-0.3,0c0,0.3,0.1,0.5,0.2,0.7c0.2,0.2,0.4,0.3,0.6,0.3c0.2,0,0.4-0.1,0.6-0.2l0.1,0.1l-0.1,0.3
				c-0.3,0.2-0.5,0.2-0.9,0.2c-0.4,0-0.7-0.1-0.9-0.4c-0.2-0.2-0.3-0.6-0.3-1c0-0.5,0.1-0.9,0.4-1.1c0.3-0.3,0.7-0.4,1-0.4
				c0.3,0,0.6,0.1,0.8,0.3C47.4,62.6,47.5,62.8,47.5,63.2"/>
			<path fill="#21678B" d="M49.8,62.1l0,0.5c0,0.1,0,0.2,0,0.3l-0.1,0c-0.1-0.1-0.2-0.2-0.3-0.2c-0.1,0-0.2,0.1-0.3,0.2
				c0,0.1-0.1,0.2-0.1,0.3v0.7c0,0.1,0,0.3,0,0.6c0,0.1,0,0.1,0.1,0.1c0,0,0.2,0,0.4,0.1l0,0v0.2l0,0c-0.3,0-0.5,0-0.8,0
				c-0.3,0-0.6,0-0.7,0l0,0v-0.2l0,0c0.2,0,0.3,0,0.3,0c0,0,0.1-0.1,0.1-0.1c0-0.2,0-0.5,0-0.8v-0.4c0-0.4,0-0.6,0-0.7
				c0,0-0.1-0.1-0.1-0.1c0,0-0.1,0-0.2,0l0,0v-0.2l0,0c0.3,0,0.7-0.1,1-0.2l0.1,0l0,0.5c0.1-0.1,0.2-0.3,0.4-0.5
				c0.1-0.1,0.2-0.1,0.3-0.1C49.7,62.1,49.8,62.1,49.8,62.1"/>
			<path fill="#21678B" d="M52,62.1l0,0.5c0,0.1,0,0.2,0,0.3l-0.1,0c-0.1-0.1-0.2-0.2-0.3-0.2c-0.1,0-0.2,0.1-0.3,0.2
				c-0.1,0.1-0.1,0.2-0.1,0.3v0.7c0,0.1,0,0.3,0,0.6c0,0.1,0,0.1,0.1,0.1c0,0,0.2,0,0.4,0.1l0,0v0.2l0,0c-0.3,0-0.5,0-0.8,0
				c-0.3,0-0.6,0-0.7,0l0,0v-0.2l0,0c0.2,0,0.3,0,0.3,0c0,0,0.1-0.1,0.1-0.1c0-0.2,0-0.5,0-0.8v-0.4c0-0.4,0-0.6,0-0.7
				c0,0-0.1-0.1-0.1-0.1c0,0-0.1,0-0.2,0l0,0v-0.2l0,0c0.3,0,0.7-0.1,1-0.2l0.1,0l0,0.5c0.1-0.1,0.2-0.3,0.4-0.5
				c0.1-0.1,0.2-0.1,0.3-0.1C51.9,62.1,51.9,62.1,52,62.1"/>
			<path fill="#21678B" d="M53.6,64.2v-0.7c-0.3,0.1-0.5,0.1-0.6,0.2c-0.1,0.1-0.2,0.2-0.2,0.3c0,0.2,0.1,0.4,0.3,0.4
				C53.4,64.4,53.5,64.3,53.6,64.2 M54.6,64.8L54.6,64.8c-0.2,0-0.4,0-0.6,0c-0.2,0-0.3,0-0.4,0l0,0l0-0.4l-0.5,0.4
				c0,0-0.1,0.1-0.2,0.1c0,0-0.1,0-0.1,0c-0.2,0-0.4-0.1-0.5-0.2c-0.1-0.1-0.2-0.3-0.2-0.5c0-0.3,0.1-0.5,0.3-0.6
				c0.2-0.1,0.6-0.2,1.2-0.3c0-0.3-0.1-0.5-0.2-0.6c-0.1-0.1-0.2-0.1-0.3-0.1c-0.1,0-0.3,0-0.3,0.1l-0.1,0.3l0,0l-0.1,0l0,0l0-0.3
				c0.3-0.2,0.5-0.3,0.7-0.4c0.1,0,0.1,0,0.2,0c0.4,0,0.6,0.1,0.8,0.3c0.1,0.1,0.2,0.3,0.2,0.6c0,0.1,0,0.2,0,0.3c0,0.3,0,0.4,0,0.5
				c0,0.3,0,0.5,0,0.5c0,0.1,0,0.1,0.1,0.1c0,0,0.1,0,0.2,0l0,0L54.6,64.8z"/>
			<path fill="#21678B" d="M56.4,64.9L56.4,64.9c-0.2,0-0.4,0-0.8,0c-0.3,0-0.6,0-0.7,0l0,0v-0.2l0,0c0.2,0,0.3,0,0.3,0
				c0,0,0.1-0.1,0.1-0.1c0-0.2,0-0.7,0-1.3l0-0.9c0-0.4,0-0.7,0-1c0-0.1,0-0.1-0.1-0.1s-0.1,0-0.3,0l0,0v-0.2l0,0
				c0.3,0,0.7-0.1,1-0.2l0.1,0c0,0,0,0.1,0,0.3c0,0.4,0,0.9,0,1.5l0,0.7c0,0.6,0,1,0,1.3c0,0.1,0,0.1,0.1,0.1c0,0,0.1,0,0.3,0.1l0,0
				L56.4,64.9z"/>
			<path fill="#21678B" d="M59.8,64.5c0,0,0,0.1-0.1,0.1c-0.1,0.1-0.2,0.2-0.3,0.3c-0.1,0-0.2,0.1-0.3,0.1c-0.2,0-0.4-0.1-0.5-0.2
				c0-0.1-0.1-0.1-0.1-0.2c0-0.1,0-0.2,0-0.4l0-0.7l0-0.7h-0.1l-0.1,0h-0.1l0,0v-0.1l0,0c0,0,0.1,0,0.2-0.1c0.1,0,0.1-0.1,0.2-0.1
				V62c0-0.2,0-0.3,0-0.5c0.1,0,0.2-0.1,0.3-0.1c0.1,0,0.2-0.1,0.4-0.2l0.1,0.1c0,0.2,0,0.4,0,0.6l0,0.5h0.1c0.2,0,0.4,0,0.5,0l0,0
				l0,0.3l0,0l-0.6,0l0,1c0,0.3,0,0.5,0,0.5c0,0.1,0,0.1,0.1,0.2c0,0.1,0.1,0.1,0.2,0.1C59.5,64.5,59.6,64.5,59.8,64.5L59.8,64.5z"
				/>
			<path fill="#21678B" d="M62,63.8c0-0.5,0-0.8-0.1-1c-0.1-0.2-0.2-0.3-0.5-0.3c-0.4,0-0.5,0.3-0.5,1c0,0.9,0.2,1.3,0.6,1.3
				c0.2,0,0.4-0.1,0.5-0.4C61.9,64.2,62,64,62,63.8 M62.7,63.5c0,0.7-0.2,1.1-0.7,1.3c-0.2,0.1-0.5,0.2-0.7,0.2
				c-0.4,0-0.7-0.1-1-0.4C60.1,64.4,60,64,60,63.6c0-0.6,0.2-1.1,0.6-1.3c0.2-0.1,0.5-0.2,0.7-0.1c0.6,0,0.9,0.2,1.1,0.6
				C62.7,63,62.7,63.2,62.7,63.5"/>
			<path fill="#21678B" d="M67.9,61c0,0.1,0,0.3,0,0.4l0,0.5l0,0h-0.2l0,0c0-0.2,0-0.4,0-0.4c0-0.1-0.1-0.1-0.2-0.1c0,0-0.2,0-0.5,0
				h-0.4c0,0.1,0,0.3,0,0.8l0,1.6c0,0.4,0,0.7,0,0.9c0,0.1,0,0.1,0.1,0.1c0,0,0.1,0,0.3,0l0,0V65h0c-0.2,0-0.4,0-0.8,0
				c-0.4,0-0.7,0-0.8,0l0,0v-0.2l0,0c0.2,0,0.3,0,0.3,0c0.1,0,0.1-0.1,0.1-0.1c0-0.1,0-0.4,0.1-0.9l0-1.6c0-0.5,0-0.7,0-0.8h-0.4
				c-0.3,0-0.5,0-0.6,0c0,0-0.1,0-0.1,0c0,0,0,0.1,0,0.2c0,0.1,0,0.2,0,0.3h0h-0.2l0,0v-0.5c0-0.1,0-0.3,0-0.4l0,0
				c0.1,0,0.5,0,1.2,0h1.1C67.4,61,67.7,61,67.9,61L67.9,61z"/>
			<path fill="#21678B" d="M69.8,62.3l0,0.5c0,0.1,0,0.2,0,0.3l-0.1,0c-0.1-0.1-0.2-0.2-0.3-0.2c-0.1,0-0.2,0.1-0.3,0.2
				c-0.1,0.1-0.1,0.2-0.1,0.3l0,0.7c0,0.1,0,0.3,0,0.6c0,0.1,0,0.1,0.1,0.1c0,0,0.2,0,0.4,0.1l0,0v0.2l0,0c-0.3,0-0.5,0-0.8,0
				c-0.3,0-0.6,0-0.7,0l0,0v-0.2l0,0c0.2,0,0.3,0,0.3,0c0,0,0.1-0.1,0.1-0.1c0-0.2,0-0.5,0-0.8l0-0.4c0-0.4,0-0.6,0-0.7
				c0,0-0.1-0.1-0.1-0.1c0,0-0.1,0-0.2,0l0,0v-0.1l0,0c0.3,0,0.7-0.1,1-0.2l0.1,0l0,0.5c0.1-0.1,0.2-0.3,0.4-0.5
				c0.1-0.1,0.2-0.1,0.3-0.1C69.7,62.2,69.7,62.3,69.8,62.3"/>
			<path fill="#21678B" d="M71.6,63.4c0-0.5-0.2-0.8-0.4-0.8c-0.3,0-0.5,0.2-0.5,0.7v0.1c0.1,0,0.3,0,0.6,0
				C71.4,63.4,71.6,63.4,71.6,63.4L71.6,63.4L71.6,63.4z M72.3,63.4c0,0,0,0.1,0,0.1h0c-0.2,0.1-0.6,0.1-1,0.1c-0.1,0-0.2,0-0.3,0
				s-0.2,0-0.3,0c0,0.3,0.1,0.5,0.2,0.7c0.2,0.2,0.4,0.3,0.6,0.3c0.2,0,0.4-0.1,0.6-0.2l0.1,0.1l-0.1,0.3c-0.3,0.2-0.6,0.2-0.9,0.2
				c-0.4,0-0.7-0.1-0.9-0.4s-0.3-0.6-0.3-1c0-0.5,0.1-0.9,0.4-1.1c0.3-0.3,0.7-0.4,0.9-0.4c0.3,0,0.6,0.1,0.8,0.3
				C72.3,62.8,72.3,63.1,72.3,63.4"/>
			<path fill="#21678B" d="M74.2,64.4l0-0.7c-0.3,0.1-0.5,0.1-0.6,0.2c-0.1,0.1-0.2,0.2-0.2,0.3c0,0.3,0.1,0.4,0.3,0.4
				C73.9,64.6,74.1,64.5,74.2,64.4 M75.2,65L75.2,65c-0.2,0-0.4,0-0.5,0c-0.2,0-0.3,0-0.4,0l0,0l0-0.4L73.7,65c0,0-0.1,0.1-0.2,0.1
				c0,0-0.1,0-0.1,0c-0.2,0-0.3-0.1-0.5-0.2c-0.1-0.1-0.2-0.3-0.2-0.5c0-0.3,0.1-0.5,0.3-0.6c0.2-0.1,0.6-0.2,1.2-0.3
				c0-0.3-0.1-0.5-0.2-0.6c-0.1-0.1-0.2-0.1-0.3-0.1c-0.1,0-0.2,0-0.3,0.1l-0.1,0.3l0,0l-0.1,0l0,0l0-0.3c0.3-0.2,0.5-0.3,0.7-0.4
				c0.1,0,0.2,0,0.3,0c0.4,0,0.6,0.1,0.8,0.3c0.1,0.1,0.2,0.3,0.1,0.6c0,0.1,0,0.2,0,0.3c0,0.3,0,0.4,0,0.5c0,0.3,0,0.5,0,0.5
				c0,0.1,0,0.1,0.1,0.1c0,0,0.1,0,0.2,0l0,0L75.2,65L75.2,65z"/>
			<path fill="#21678B" d="M77.1,64.7c0,0-0.1,0.1-0.1,0.1c-0.1,0.1-0.2,0.2-0.3,0.3c-0.1,0-0.2,0.1-0.3,0.1c-0.2,0-0.4-0.1-0.6-0.2
				c-0.1-0.1-0.1-0.1-0.1-0.2c0-0.1,0-0.2,0-0.4l0-0.7l0-0.7h-0.1h-0.2h-0.1l0,0v-0.1l0,0c0,0,0.1,0,0.2-0.1c0.1,0,0.1-0.1,0.2-0.1
				v-0.4c0-0.2,0-0.3,0-0.5c0.1,0,0.2-0.1,0.3-0.1c0.1,0,0.2-0.1,0.4-0.2l0.1,0c0,0.2,0,0.4-0.1,0.6l0,0.5h0.1c0.2,0,0.4,0,0.5,0
				l0,0l0,0.3l0,0h-0.6l0,1c0,0.3,0,0.5,0,0.5c0,0.1,0.1,0.1,0.1,0.2c0.1,0.1,0.1,0.1,0.2,0.1c0.1,0,0.2,0,0.3-0.1L77.1,64.7z"/>
			<path fill="#21678B" d="M82,65.1L82,65.1c-0.1,0-0.3,0-0.6,0c-0.2,0-0.4,0-0.5,0l0-0.1c0-0.5,0.1-0.8,0.1-1v-0.3
				c0-0.3,0-0.5,0-0.5c0-0.1-0.1-0.2-0.1-0.3s-0.2-0.1-0.3-0.1c-0.1,0-0.2,0-0.3,0.1C80,63.1,80,63.2,80,63.3l0,0.8v0.4
				c0,0.1,0,0.2,0,0.2c0,0,0,0,0.1,0.1c0,0,0.1,0,0.3,0l0,0V65l0,0c-0.2,0-0.4,0-0.7,0c-0.3,0-0.5,0-0.7,0l0,0v-0.2l0,0
				c0.1,0,0.2,0,0.2,0c0,0,0.1,0,0.1-0.1s0-0.1,0-0.3l0-0.9c0-0.2,0-0.4,0-0.5c0-0.1-0.1-0.1-0.1-0.2c-0.1,0-0.1-0.1-0.2-0.1
				c-0.2,0-0.3,0.1-0.4,0.2c-0.1,0-0.1,0.1-0.1,0.1c0,0,0,0.1,0,0.2l0,0.6c0,0.1,0,0.3,0,0.5c0,0.2,0,0.3,0,0.3c0,0,0,0.1,0.1,0.1
				c0.1,0,0.1,0,0.2,0l0,0V65l0,0c-0.2,0-0.4,0-0.7,0c-0.3,0-0.6,0-0.7,0l0,0v-0.2l0,0c0.2,0,0.3,0,0.3,0c0,0,0.1-0.1,0.1-0.1
				c0-0.2,0-0.5,0-0.8v-0.4c0-0.4,0-0.6,0-0.7c0,0-0.1-0.1-0.1-0.1c0,0-0.1,0-0.2,0l0,0v-0.2l0,0c0.3,0,0.7-0.1,1-0.2h0.1l0,0.4
				l0.5-0.4c0.1,0,0.2-0.1,0.3-0.1c0.2,0,0.4,0,0.5,0.1c0.1,0.1,0.2,0.2,0.3,0.4l0.5-0.4c0.1,0,0.2-0.1,0.3-0.1
				c0.3,0,0.6,0.1,0.7,0.4c0.1,0.1,0.1,0.3,0.1,0.5c0,0.1,0,0.2,0,0.2l0,0.1c0,0.1,0,0.2,0,0.2V64c0,0.3,0,0.5,0,0.5
				c0,0.1,0,0.1,0.1,0.2c0,0,0.1,0,0.3,0l0,0L82,65.1z"/>
			<path fill="#21678B" d="M84,63.5c0-0.5-0.1-0.8-0.4-0.8c-0.3,0-0.5,0.2-0.5,0.7v0.1c0.1,0,0.3,0,0.6,0
				C83.8,63.5,83.9,63.5,84,63.5C84,63.5,84,63.5,84,63.5 M84.7,63.6c0,0,0,0.1,0,0.1h0c-0.2,0.1-0.6,0.1-0.9,0.1
				c-0.1,0-0.2,0-0.3,0c-0.1,0-0.2,0-0.3,0c0,0.3,0.1,0.5,0.2,0.7c0.2,0.2,0.4,0.3,0.6,0.3c0.2,0,0.4-0.1,0.6-0.2l0.1,0.1L84.4,65
				c-0.3,0.2-0.6,0.3-0.9,0.2c-0.4,0-0.7-0.1-0.9-0.4s-0.3-0.6-0.3-1c0-0.5,0.1-0.9,0.4-1.1c0.3-0.3,0.7-0.4,0.9-0.4
				c0.3,0,0.6,0.1,0.8,0.3C84.6,62.9,84.7,63.2,84.7,63.6"/>
			<path fill="#21678B" d="M88.2,65.2L88.2,65.2c-0.2,0-0.4,0-0.5,0c-0.1,0-0.3,0-0.6,0l0,0c0-0.4,0.1-0.7,0.1-1l0-0.5
				c0-0.5-0.2-0.7-0.5-0.7c-0.2,0-0.3,0-0.4,0.2c-0.1,0.1-0.1,0.2-0.1,0.3l0,0.5c0,0.5,0,0.8,0,0.9c0,0.1,0.1,0.1,0.3,0.1l0,0v0.2h0
				c-0.2,0-0.4,0-0.7,0c-0.3,0-0.6,0-0.7,0l0,0v-0.2l0,0c0.2,0,0.3,0,0.3,0c0,0,0.1-0.1,0.1-0.1c0-0.2,0-0.5,0-0.8v-0.4
				c0-0.4,0-0.6,0-0.7c0,0-0.1-0.1-0.1-0.1c0,0-0.1,0-0.2,0l0,0v-0.2l0,0c0.3,0,0.7-0.1,1-0.2l0.1,0l0,0.5l0.5-0.4
				c0.1,0,0.2-0.1,0.4-0.1c0.3,0,0.5,0.1,0.6,0.3c0.1,0.1,0.2,0.4,0.2,0.6c0,0,0,0.2,0,0.4c0,0.2,0,0.4,0,0.5c0,0.3,0,0.5,0,0.5
				c0,0.1,0,0.1,0.1,0.2c0,0,0.1,0,0.3,0h0L88.2,65.2L88.2,65.2z"/>
			<path fill="#21678B" d="M90.1,64.8c0,0-0.1,0.1-0.1,0.1c-0.1,0.1-0.2,0.2-0.3,0.3c-0.1,0-0.2,0.1-0.3,0.1c-0.2,0-0.4-0.1-0.5-0.2
				c-0.1-0.1-0.1-0.1-0.1-0.2c0-0.1,0-0.2,0-0.4l0-0.7l0-0.7h-0.1h-0.2h-0.1l0-0.1v-0.1l0,0c0,0,0.1,0,0.2-0.1
				c0.1,0,0.1-0.1,0.2-0.1v-0.4c0-0.2,0-0.3,0-0.5c0.1,0,0.2-0.1,0.3-0.1c0.1,0,0.2-0.1,0.4-0.2l0.1,0.1c0,0.2,0,0.4-0.1,0.6l0,0.5
				h0.1c0.2,0,0.4,0,0.5,0l0,0l0,0.3l0,0h-0.6l0,1c0,0.3,0,0.5,0,0.5c0,0.1,0,0.1,0.1,0.2c0.1,0.1,0.1,0.1,0.2,0.1
				c0.1,0,0.2,0,0.3-0.1L90.1,64.8z"/>
		</g>
	</g>
</g>
</svg>
